<svg width="64" height="40" viewBox="0 0 64 40" fill="none" xmlns="http://www.w3.org/2000/svg">
<g clip-path="url(#clip0_4026_1793)">
<path d="M59.5699 4.91685C59.5699 4.96349 59.5699 5.02179 59.558 5.05677C59.4983 5.51151 59.4983 5.96624 59.5341 6.43264C59.558 6.54924 59.5818 6.66584 59.6772 6.75913C59.8322 6.93402 60.0707 6.89904 60.1661 6.68916C60.2139 6.58423 60.2139 6.47928 60.19 6.37435C60.0707 5.93126 60.0469 5.46487 60.035 5.01013C60.035 4.98681 60.035 4.95183 60.035 4.91685C60.1661 4.90519 60.2854 4.89353 60.3927 4.89353C60.4762 4.88187 60.5478 4.87021 60.6074 4.83523C60.7862 4.74195 60.7862 4.54374 60.5954 4.45045C60.5239 4.41547 60.4285 4.40381 60.3451 4.40381C60.0469 4.41547 59.7488 4.41547 59.4506 4.41547C59.3433 4.41547 59.236 4.42714 59.1286 4.43879C59.069 4.45045 58.9974 4.45045 58.9498 4.48544C58.8662 4.52041 58.8186 4.57871 58.8186 4.66033C58.8305 4.74195 58.8662 4.78859 58.9498 4.82357C58.9974 4.85855 59.0571 4.87021 59.1167 4.87021C59.2598 4.88187 59.4149 4.90519 59.5699 4.91685ZM62.8493 5.45321C62.8493 5.46487 62.8612 5.47653 62.8612 5.47653C62.909 5.79134 62.9567 6.09451 62.9924 6.39766C63.0044 6.5026 63.0163 6.59588 63.0879 6.6775C63.2429 6.87572 63.4814 6.8524 63.5887 6.64253C63.6364 6.53758 63.6483 6.43264 63.6245 6.31604C63.553 5.96624 63.5171 5.61644 63.4456 5.27831C63.3979 5.06843 63.3383 4.87021 63.2787 4.68365C63.2429 4.56705 63.1594 4.48543 63.0163 4.47377C62.8732 4.45045 62.7659 4.52041 62.7062 4.62535C62.6347 4.71863 62.5751 4.81191 62.5273 4.91685C62.4439 5.10341 62.3723 5.28997 62.277 5.46487C62.265 5.51151 62.2531 5.54649 62.2292 5.58146C62.2173 5.55814 62.2054 5.54649 62.2054 5.54649C62.0503 5.25499 61.9072 4.96349 61.7522 4.68365C61.7283 4.66033 61.7164 4.63701 61.7045 4.61369C61.633 4.50875 61.5495 4.45045 61.4183 4.45045C61.2991 4.46211 61.2036 4.53207 61.1441 4.63701C61.1201 4.68365 61.1201 4.71863 61.1082 4.76527C61.0605 5.13839 61.0009 5.51151 60.9532 5.88463C60.9293 6.09451 60.9174 6.30438 60.9174 6.51426C60.9055 6.5609 60.9174 6.6192 60.9412 6.66584C60.9651 6.75912 61.0367 6.81743 61.1321 6.82908C61.2513 6.84074 61.3348 6.80576 61.3706 6.71248C61.4063 6.64253 61.4183 6.58423 61.4302 6.52593C61.478 6.31604 61.5137 6.11783 61.5495 5.91961C61.5733 5.80301 61.5852 5.70973 61.6211 5.58146C61.6449 5.62811 61.6687 5.66309 61.6926 5.69806C61.7999 5.83799 61.9072 5.97791 62.0384 6.09451C62.1696 6.18778 62.277 6.17613 62.3842 6.07118C62.4081 6.04786 62.4201 6.03621 62.4439 6.01288C62.5512 5.84964 62.6824 5.68641 62.7897 5.52316C62.8136 5.49984 62.8255 5.47653 62.8493 5.45321Z" fill="#105246"/>
<path d="M35.3715 5.14612C35.2886 5.36771 35.2728 5.52735 35.311 5.66005C35.3533 5.84048 35.463 5.89955 35.6119 5.85366C37.0127 5.515 40.0842 6.47627 41.2214 6.74419C41.4896 6.80045 41.7078 6.46195 41.5248 6.15845C41.2577 5.86455 38.1875 4.60621 37.016 4.5376C36.5568 4.51223 35.7359 4.3971 35.3715 5.14612Z" fill="#105246"/>
<path d="M47.3757 1.07274C47.5249 1.15698 47.6084 1.23735 47.6496 1.32714C47.7109 1.44492 47.6786 1.52641 47.5755 1.56799C46.6496 2.00983 45.4175 3.91202 44.9201 4.56807C44.7996 4.71898 44.5215 4.63128 44.4795 4.3831C44.4881 4.10248 45.5803 2.03818 46.1899 1.47594C46.4294 1.25642 46.8251 0.8257 47.3757 1.07274Z" fill="#105246"/>
<path d="M40.0021 0.136178C40.1814 0.00401716 40.3678 -0.042296 40.463 0.043592C41.86 1.21173 42.6008 3.06157 43.0595 4.75506C43.0768 4.79452 43.0779 4.85114 43.0641 4.9102C43.0583 4.96068 43.0206 5.01401 42.9607 5.05527C42.8967 5.10083 42.8416 5.1147 42.8157 5.07545C42.2034 4.2612 38.7064 1.09311 40.0021 0.136178Z" fill="#105246"/>
<path d="M10.4191 20.3888C10.7539 20.145 11.1179 19.9421 11.5031 19.7847C11.9061 19.672 12.3356 19.6907 12.7268 19.838C13.1179 19.9852 13.4495 20.253 13.6711 20.6008C13.8694 20.9477 13.9469 21.3482 13.8922 21.742C13.8375 22.1358 13.6534 22.5015 13.3675 22.7841C13.146 23.0132 12.8945 23.2128 12.6196 23.3777C11.3947 24.1514 10.1589 24.8827 8.92315 25.6564C8.67029 25.85 8.40205 26.0238 8.12098 26.1758C7.69346 26.3842 7.20488 26.44 6.73971 26.3336C6.27455 26.2272 5.86205 25.9651 5.57356 25.5929C5.3579 25.3292 5.17589 25.041 5.03155 24.7343C3.86083 22.3284 2.64675 19.933 1.51937 17.4847C0.999045 16.4249 0.576285 15.206 0.164362 14.0295C-0.0138551 13.6877 -0.0486568 13.2914 0.067367 12.9249C0.183391 12.5583 0.441086 12.2505 0.785637 12.0669C1.13019 11.8832 1.53441 11.8383 1.91234 11.9416C2.29026 12.0449 2.61208 12.2882 2.80934 12.6199C3.41565 13.4077 3.95237 14.2445 4.41367 15.1212C5.5844 17.241 6.70094 19.3607 7.8283 21.4169C7.89395 21.5305 7.96633 21.6401 8.0451 21.7454C8.89364 21.3966 9.69173 20.9405 10.4191 20.3888Z" fill="#105246"/>
<path d="M22.5237 19.6495C19.8462 22.7125 15.3584 21.9387 13.1037 17.996C11.4993 15.1979 11.2175 10.5768 14.7081 7.66217C15.4534 7.05196 16.3447 6.63628 17.2988 6.4539C18.4686 6.28993 19.6615 6.49171 20.707 7.03042C21.7524 7.56913 22.597 8.41717 23.12 9.45338C25.0278 12.845 24.7568 17.1693 22.5237 19.6495ZM21.4397 12.5058C21.1552 11.6724 20.5846 10.9608 19.8245 10.492C19.3944 10.1923 18.8718 10.0466 18.3447 10.0794C17.8175 10.1122 17.3181 10.3216 16.9302 10.6722C15.3802 12.0183 15.0549 15.2086 16.1822 17.1057C16.326 17.4151 16.537 17.69 16.8007 17.9113C17.0644 18.1326 17.3744 18.2948 17.709 18.3867C18.0435 18.4786 18.3945 18.4978 18.7375 18.4432C19.0805 18.3885 19.4071 18.2612 19.6945 18.0702C20.5348 17.4332 21.1512 16.5561 21.4582 15.5608C21.7652 14.5655 21.7473 13.5014 21.4072 12.5165L21.4397 12.5058Z" fill="#105246"/>
<path d="M33.4505 13.8409C33.1764 13.8986 32.8932 13.902 32.6177 13.851C32.3422 13.8 32.0799 13.6958 31.8462 13.5442C31.6418 13.4299 31.4658 13.2727 31.3309 13.0839C31.196 12.895 31.1057 12.6794 31.0663 12.4523C31.0269 12.2253 31.0395 11.9926 31.103 11.7709C31.1667 11.5491 31.2799 11.3439 31.4343 11.17C31.7034 10.8206 32.0854 10.5704 32.5183 10.4599C33.6486 10.1392 34.8121 9.94367 35.9871 9.87704C36.2453 9.84767 36.5069 9.86904 36.7564 9.93986C37.006 10.0108 37.2386 10.1296 37.4406 10.2896C37.6425 10.4495 37.8098 10.6473 37.9325 10.8713C38.0551 11.0953 38.1309 11.341 38.1551 11.594C38.4939 12.8368 38.5309 14.1398 38.2635 15.399C37.2879 19.4689 33.9275 20.8679 30.1551 19.5643C29.0962 19.2158 28.1678 18.5663 27.4885 17.6989C26.5825 16.6544 25.9401 15.4165 25.6131 14.0848C25.3482 12.8989 25.3772 11.6683 25.6979 10.4957C26.0184 9.32304 26.6212 8.24236 27.4559 7.3439C28.2481 6.36738 29.2763 5.59887 30.4479 5.10755C31.1881 4.70859 32.0544 4.59516 32.876 4.78958C33.0624 4.84002 33.2316 4.93829 33.366 5.07421C33.5005 5.21014 33.5953 5.37875 33.6407 5.56258C33.686 5.74639 33.6802 5.93873 33.6239 6.11964C33.5676 6.30054 33.4629 6.46342 33.3205 6.59138C33.0498 6.83098 32.7557 7.04398 32.4424 7.22731C31.4787 7.82738 30.64 8.6006 29.9709 9.50604C29.5322 10.0919 29.2301 10.7648 29.0859 11.477C28.9417 12.1893 28.9589 12.9239 29.1362 13.629C29.382 14.5905 29.9276 15.4535 30.6971 16.0985C33.0819 18.2183 36.1822 16.1727 35.6402 13.2792C34.8489 13.47 34.1551 13.6714 33.4505 13.8409Z" fill="#105246"/>
<path d="M48.0198 19.8191C44.4968 21.9389 40.486 19.8191 39.6079 15.3676C38.9683 12.188 40.1824 7.73644 44.4318 6.04063C45.3359 5.68759 46.3165 5.56363 47.2827 5.68027C48.4435 5.88804 49.5084 6.4468 50.3271 7.27777C51.1459 8.10873 51.6773 9.16997 51.8463 10.312C52.5618 14.0957 50.9358 18.1339 48.0198 19.8191ZM49.2448 12.6861C49.2437 11.8056 48.9251 10.9536 48.3451 10.2802C48.035 9.86361 47.5867 9.56515 47.0767 9.4356C46.5666 9.30615 46.0265 9.3536 45.5482 9.57006C43.6404 10.3755 42.2962 13.3008 42.7841 15.4524C42.8213 15.7901 42.9335 16.1157 43.1129 16.4065C43.2922 16.6973 43.5344 16.9463 43.8225 17.1362C44.1105 17.3259 44.4375 17.4519 44.7805 17.5052C45.1236 17.5585 45.4744 17.538 45.8084 17.445C46.8169 17.1005 47.6901 16.4568 48.3061 15.6036C48.9221 14.7504 49.2503 13.7304 49.2448 12.6861Z" fill="#105246"/>
<path d="M55.409 20.7091C55.3558 21.097 55.1473 21.4484 54.8291 21.6859C54.5109 21.9234 54.1093 22.0277 53.7126 21.9757C53.3158 21.9237 52.9565 21.7197 52.7136 21.4086C52.4706 21.0976 52.364 20.7048 52.4172 20.3169C52.4704 19.929 52.679 19.5777 52.9971 19.3401C53.3153 19.1026 53.7169 18.9984 54.1137 19.0504C54.5104 19.1024 54.8697 19.3063 55.1127 19.6174C55.3557 19.9285 55.4623 20.3212 55.409 20.7091ZM54.4659 6.41128C54.6721 6.10341 54.9746 5.86897 55.3282 5.7429C55.6817 5.61684 56.0676 5.60591 56.428 5.71176C56.7945 5.8014 57.1182 6.01141 57.3452 6.30662C57.5721 6.60184 57.6884 6.96432 57.6747 7.33338C57.6268 7.92535 57.5363 8.51328 57.4037 9.09276C57.0459 11.0536 56.699 13.0143 56.3197 14.9539C56.1462 15.7277 55.9186 16.4696 55.6692 17.2538C55.5825 17.499 55.4376 17.7206 55.2465 17.9004C55.1277 18.0357 54.9759 18.1394 54.8052 18.202C54.6345 18.2648 54.4504 18.2843 54.2699 18.2589C54.0895 18.2336 53.9184 18.1641 53.7727 18.057C53.6269 17.9498 53.5112 17.8085 53.4362 17.646C53.3073 17.3546 53.2373 17.0414 53.2302 16.7239C53.2302 15.4097 53.2302 14.0848 53.3169 12.7599C53.4643 10.8692 53.7541 8.99165 54.1841 7.14259C54.2347 6.89487 54.3301 6.65797 54.4659 6.44308V6.41128Z" fill="#105246"/>
<path fill-rule="evenodd" clip-rule="evenodd" d="M5.83925 29.2262C5.71126 29.5056 5.67616 29.817 5.7387 30.1168C5.78031 30.5119 5.8717 30.9005 6.01079 31.2738C6.18445 31.7309 6.37876 32.1829 6.61836 32.74C6.67346 32.8681 6.73105 33.002 6.7913 33.1428C7.11441 33.8975 7.51983 34.8621 8.0606 36.258C8.21366 36.6545 8.34958 37.0543 8.48646 37.4569C8.54175 37.6195 8.59724 37.7827 8.65404 37.9462C8.85764 38.5277 9.20796 39.0501 9.67233 39.4641C9.86951 39.6916 10.1311 39.8574 10.4243 39.9403C10.7233 40.0249 11.0413 40.0195 11.3371 39.925C11.633 39.8303 11.8928 39.6509 12.0829 39.4099C12.2692 39.1736 12.3801 38.8889 12.4016 38.5914C12.5225 38.012 12.4812 37.4111 12.282 36.8525C11.9657 35.925 11.6054 34.9961 11.19 34.0875L11.1881 34.0835C10.5046 32.662 9.80987 31.2504 9.08227 29.8382L9.07683 29.8283C8.86383 29.4604 8.58702 29.1315 8.25884 28.8564C8.04578 28.6109 7.7519 28.4452 7.42736 28.3881C7.09589 28.3299 6.75404 28.3886 6.46282 28.554C6.18733 28.7078 5.96895 28.9431 5.83925 29.2262Z" fill="#105246"/>
<path fill-rule="evenodd" clip-rule="evenodd" d="M16.2779 25.726C15.2063 25.4546 14.0871 25.4151 12.9984 25.6101C12.1551 25.6913 11.3258 25.8815 10.7499 26.2582C10.4569 26.45 10.2201 26.6961 10.0884 27.0091C9.95594 27.3237 9.93903 27.6835 10.0476 28.0844C10.2458 28.8188 10.5031 29.5328 10.7596 30.2445L10.8011 30.3598L10.8021 30.3623C11.5743 32.43 12.3539 34.4906 13.1405 36.5441C13.2322 36.8678 13.3619 37.18 13.527 37.4744L13.5301 37.4799C13.7482 37.8457 14.0279 38.1729 14.3575 38.4477C14.5223 38.5988 14.7261 38.7033 14.9471 38.7501C15.1703 38.7971 15.4024 38.7835 15.6181 38.7104C15.8339 38.6374 16.025 38.5079 16.1707 38.3359C16.3139 38.1667 16.4078 37.9629 16.4422 37.746C16.5844 37.1567 16.5389 36.539 16.3116 35.9757C16.2407 35.7861 16.185 35.5924 16.1264 35.3885C16.1069 35.3205 16.087 35.2513 16.0661 35.1809C17.8668 34.4927 19.7827 33.5673 20.4564 31.4146C20.7202 30.6707 20.7422 29.8651 20.5193 29.1084C20.2962 28.3509 19.8385 27.6794 19.2092 27.1865C18.3528 26.4965 17.3523 25.998 16.2779 25.726ZM13.3075 28.3664C13.3429 28.3564 13.3787 28.3471 13.4145 28.3385C14.5868 28.1583 15.7861 28.3984 16.7918 29.0144C17.2349 29.3158 17.4165 29.6506 17.4477 29.9728C17.4799 30.3045 17.3565 30.664 17.1087 31.0095C16.6404 31.6622 15.7859 32.1847 15.0139 32.2821C14.4512 31.015 13.8798 29.6966 13.3075 28.3664Z" fill="#105246"/>
<path d="M23.4223 23.4066C24.6985 22.8303 26.2793 22.7307 27.5163 23.1359C27.8279 23.2247 28.0981 23.4166 28.281 23.6788C28.4626 23.9395 28.5464 24.2536 28.5184 24.5676C28.5166 24.7714 28.4654 24.9719 28.3691 25.1528C28.2711 25.337 28.1292 25.4954 27.9554 25.6147C27.7816 25.7338 27.581 25.8105 27.3705 25.8378C27.16 25.8653 26.9459 25.8427 26.7461 25.7721L26.731 25.7667L26.7167 25.7594C26.6145 25.7071 26.506 25.6677 26.3937 25.6421L26.3866 25.6406C25.5164 25.4146 24.6956 25.789 24.3958 26.2491C24.2528 26.4685 24.2351 26.6899 24.3541 26.8914C24.4817 27.1071 24.7945 27.3492 25.4275 27.5217C25.6016 27.5685 25.7801 27.6136 25.9611 27.6594C26.4616 27.7861 26.9818 27.9177 27.4848 28.1002L27.4867 28.1009C29.8072 28.9642 30.6713 30.7521 30.3755 32.4337C30.0829 34.0967 28.6624 35.6102 26.5263 35.9672C25.7491 36.1357 24.9401 36.1028 24.1797 35.872C23.4173 35.6405 22.7301 35.218 22.1864 34.6464L22.1722 34.6315C22.0006 34.4161 21.8851 34.1631 21.834 33.8947C21.7869 33.6524 21.8117 33.402 21.9053 33.173C21.9984 32.9454 22.1559 32.7484 22.3591 32.6048C22.5737 32.4421 22.8324 32.3445 23.1032 32.3241C23.3731 32.3038 23.6432 32.3612 23.8802 32.489C24.117 32.6008 24.3371 32.7435 24.5348 32.9131L24.5385 32.9162C24.8881 33.2288 25.3111 33.3103 25.7168 33.2348C26.1283 33.1583 26.5153 32.9202 26.7642 32.6043C27.0115 32.2904 27.1108 31.9175 26.993 31.5555C26.8744 31.1908 26.518 30.7823 25.7348 30.4407C25.5301 30.3557 25.3178 30.2872 25.097 30.2205C25.0374 30.2025 24.9769 30.1846 24.9156 30.1664C24.7523 30.1179 24.5843 30.068 24.4196 30.013C24.3061 29.9752 24.1936 29.9394 24.0821 29.9038C23.7775 29.8068 23.4805 29.7123 23.1947 29.5855C22.5726 29.3784 22.0351 28.9807 21.6623 28.4514C21.288 27.9199 21.0996 27.2844 21.1252 26.6397C21.1272 25.0685 22.1393 23.986 23.4223 23.4066Z" fill="#105246"/>
<path d="M39.6018 23.2393C39.3543 23.1212 39.0807 23.0651 38.8056 23.0761C38.5304 23.0872 38.2624 23.165 38.0258 23.3027C37.7906 23.4394 37.5937 23.6309 37.4526 23.8601C37.3232 24.0531 37.2337 24.2689 37.189 24.4955C37.1444 24.722 37.1455 24.9547 37.1921 25.1806C37.2382 25.471 37.2893 25.7533 37.3398 26.0318C37.4233 26.4926 37.5046 26.9431 37.5582 27.4023L37.5602 27.414C37.6823 28.1342 37.7462 28.8627 37.752 29.5927L37.7525 29.6031C37.7942 30.3914 37.5195 31.1644 36.9872 31.7581L36.9788 31.7686C36.8056 31.9856 36.574 32.1512 36.31 32.247C36.046 32.3427 35.76 32.3647 35.4839 32.3105C35.2078 32.2563 34.9526 32.1282 34.7468 31.9402C34.541 31.7523 34.3925 31.5114 34.3184 31.2459C34.1602 30.6862 34.0687 30.1104 34.0454 29.5302L34.3156 25.3245C34.3196 25.2696 34.3241 25.2132 34.3288 25.1563C34.339 25.0286 34.3496 24.8985 34.354 24.7772C34.3603 24.5986 34.3549 24.415 34.3123 24.2412C34.2688 24.0635 34.186 23.8945 34.039 23.7506C33.8936 23.6082 33.6972 23.5031 33.4501 23.4315C33.0033 23.3051 32.6255 23.3091 32.3107 23.4397C31.9957 23.5703 31.7799 23.8129 31.6271 24.0931C31.4756 24.3709 31.3782 24.6998 31.3046 25.0292C31.25 25.2737 31.206 25.5303 31.1643 25.7746C31.1499 25.8588 31.1358 25.9414 31.1215 26.0217L31.1211 26.0241C30.8979 27.3637 30.8314 28.7239 30.923 30.0782C30.9401 30.8102 31.0962 31.5326 31.3835 32.2087C31.7076 33.0811 32.2946 33.8369 33.067 34.3764C33.8411 34.9171 34.7649 35.215 35.716 35.2307C36.667 35.2464 37.6006 34.9792 38.393 34.4646C39.184 33.9507 39.7971 33.2142 40.1511 32.3524C40.6463 31.2547 40.8789 30.0609 40.8309 28.862C40.8018 27.9867 40.753 27.1047 40.7046 26.2272C40.6808 25.7967 40.657 25.3672 40.6358 24.9402C40.625 24.5122 40.4807 24.0975 40.222 23.752C40.0619 23.5335 39.8488 23.3573 39.6018 23.2393Z" fill="#105246"/>
<path d="M48.3601 29.834C48.335 29.8652 48.3085 29.8975 48.2809 29.931C48.0796 28.7957 47.8931 27.6608 47.7062 26.5242C47.6392 26.1164 47.5719 25.7068 47.5041 25.2985L47.4965 25.2529L47.4718 25.2135C47.4252 25.1395 47.4205 25.0668 47.4205 24.9119V24.894L47.4177 24.8763C47.3671 24.5564 47.2192 24.2586 46.9931 24.0221C46.7676 23.7862 46.4748 23.622 46.1527 23.5507C45.8312 23.4732 45.4932 23.4903 45.1815 23.5999C44.8706 23.7093 44.5996 23.9058 44.4023 24.1649C44.2383 24.3637 44.1039 24.5843 44.0031 24.8199C43.7745 25.3275 43.5439 25.8365 43.3126 26.3467L43.3086 26.3555C42.7312 27.6295 42.15 28.9119 41.5856 30.2045L41.5839 30.2086C41.2374 31.0467 40.9514 31.9298 40.6664 32.8102C40.6095 32.9859 40.5526 33.1615 40.4952 33.3367C40.3923 33.6145 40.3473 33.9096 40.3628 34.2046C40.3441 34.4687 40.4087 34.7322 40.5481 34.9594C40.6903 35.1912 40.9033 35.3735 41.1571 35.4809C41.426 35.5962 41.7266 35.6206 42.0114 35.5505C42.2956 35.4804 42.548 35.32 42.7288 35.0945C42.9597 34.8168 43.1583 34.5139 43.3203 34.193C43.7984 33.2368 44.2553 32.269 44.7101 31.3054C44.8861 30.9326 45.0572 30.5988 45.2517 30.2353C45.2651 30.2801 45.2787 30.3238 45.2928 30.3676C45.4967 31.2454 45.8409 32.0861 46.3126 32.859C46.4019 33.0227 46.5262 33.1658 46.6771 33.2785C46.8299 33.3925 47.0062 33.4725 47.1937 33.5131C47.3812 33.5537 47.5756 33.5539 47.7632 33.5136C47.9506 33.4735 48.1274 33.3934 48.2802 33.2799L48.5827 33.0585L50.9302 31.1252L50.7914 31.9902C50.6009 33.1792 50.4118 34.3583 50.2109 35.5376C50.0794 36.0604 50.0796 36.6064 50.2114 37.1289C50.2685 37.423 50.414 37.6937 50.6292 37.9066C50.8463 38.1213 51.1243 38.2671 51.4272 38.3253C51.7301 38.3834 52.044 38.3512 52.3279 38.2327C52.6077 38.1161 52.8457 37.921 53.0121 37.6724C53.3992 37.2028 53.6401 36.6344 53.7062 36.0346C53.8059 35.1877 53.9184 34.3293 54.0311 33.4711C54.1608 32.4819 54.2905 31.493 54.4001 30.5231L54.4004 30.5201C54.5059 29.4584 54.5569 28.3923 54.5533 27.3255C54.5764 26.9885 54.4906 26.6526 54.3077 26.3656C54.1241 26.0776 53.8523 25.8537 53.5311 25.7256C53.1969 25.5771 52.8228 25.5374 52.4638 25.6125C52.1072 25.687 51.7843 25.8708 51.5421 26.1371C51.1091 26.5286 50.703 26.9476 50.3261 27.3914L50.3236 27.3944C49.9122 27.8955 49.5037 28.4065 49.0978 28.9143C48.851 29.2229 48.6049 29.5308 48.3601 29.834Z" fill="#105246"/>
</g>
<defs>
<clipPath id="clip0_4026_1793">
<rect width="63.6364" height="40" fill="white"/>
</clipPath>
</defs>
</svg>
