<svg width="112" height="28" viewBox="0 0 112 28" fill="none" xmlns="http://www.w3.org/2000/svg">
<path d="M2.74487 25.9698H26.6849V2.02979H2.74487V25.9698ZM22.077 11.6963H17.0184V6.63765H22.077V11.6963ZM7.35181 6.63765H12.4133V16.3033H22.077V21.3619H7.35181V6.63765ZM42.2744 2.02979C39.9069 2.02979 37.5926 2.73182 35.6242 4.0471C33.6557 5.36238 32.1215 7.23184 31.2155 9.41908C30.3095 11.6063 30.0725 14.013 30.5343 16.335C30.9962 18.6569 32.1362 20.7898 33.8102 22.4638C35.4843 24.1379 37.6171 25.2779 39.9391 25.7398C42.2611 26.2016 44.6678 25.9647 46.8551 25.0587C49.0423 24.1527 50.9117 22.6185 52.227 20.65C53.5423 18.6815 54.2444 16.3672 54.2444 13.9998C54.2406 10.8263 52.9783 7.78382 50.7343 5.53982C48.4903 3.29581 45.4479 2.03349 42.2744 2.02979ZM42.2744 21.3619C40.8183 21.3619 39.3948 20.9302 38.1841 20.1211C36.9735 19.3122 36.0298 18.1625 35.4726 16.8171C34.9154 15.4719 34.7696 13.9917 35.0536 12.5635C35.3377 11.1354 36.0389 9.82359 37.0685 8.79397C38.0982 7.76436 39.41 7.06319 40.8381 6.77912C42.2661 6.49505 43.7464 6.64084 45.0917 7.19806C46.4369 7.75528 47.5868 8.69891 48.3957 9.90964C49.2047 11.1203 49.6365 12.5437 49.6365 13.9998C49.6335 15.9515 48.8569 17.8223 47.4768 19.2024C46.0968 20.5824 44.226 21.3589 42.2744 21.3619ZM97.0788 2.02979C94.7109 2.02961 92.3969 2.73147 90.4283 4.04664C88.4597 5.36181 86.9254 7.23121 86.0192 9.41843C85.1131 11.6056 84.8759 14.0125 85.3377 16.3344C85.7994 18.6565 86.9394 20.7894 88.6134 22.4635C90.2874 24.1377 92.4202 25.2778 94.7426 25.7397C97.0638 26.2016 99.4709 25.9647 101.659 25.0588C103.845 24.1528 105.715 22.6186 107.03 20.6501C108.346 18.6816 109.048 16.3673 109.048 13.9998C109.044 10.8265 107.782 7.78412 105.538 5.54015C103.295 3.29616 100.252 2.03374 97.0788 2.02979ZM97.0788 21.3619C95.6228 21.3621 94.1994 20.9304 92.9883 20.1216C91.7775 19.3128 90.8337 18.163 90.2763 16.8178C89.719 15.4726 89.5731 13.9922 89.857 12.564C90.141 11.1359 90.8421 9.82405 91.8717 8.79431C92.9012 7.7646 94.2134 7.06333 95.6414 6.77918C97.0694 6.49504 98.5497 6.64078 99.8946 7.19798C101.24 7.75517 102.39 8.69879 103.2 9.90955C104.008 11.1203 104.44 12.5437 104.44 13.9998C104.437 15.9513 103.661 17.822 102.28 19.202C100.901 20.582 99.0304 21.3587 97.0788 21.3619ZM69.6761 2.02979C67.3086 2.02979 64.9943 2.73182 63.0259 4.0471C61.0574 5.36238 59.5232 7.23184 58.6172 9.41908C57.7112 11.6063 57.4743 14.013 57.9361 16.335C58.398 18.6569 59.5379 20.7898 61.212 22.4638C62.886 24.1379 65.0189 25.2779 67.3408 25.7398C69.6627 26.2016 72.0695 25.9647 74.2568 25.0587C76.4441 24.1527 78.3134 22.6185 79.6288 20.65C80.944 18.6815 81.6461 16.3672 81.6461 13.9998C81.6424 10.8263 80.38 7.78382 78.136 5.53982C75.892 3.29581 72.8496 2.03349 69.6761 2.02979ZM69.6761 21.3619C68.3194 21.3626 66.989 20.9884 65.8316 20.2807C64.6743 19.5729 63.7349 18.5592 63.1173 17.3513C62.4998 16.1434 62.2279 14.7883 62.3319 13.4357C62.4359 12.083 62.9115 10.7854 63.7064 9.68601C64.5013 8.58669 65.5845 7.72835 66.8364 7.20578C68.0884 6.6832 69.4604 6.51671 70.8009 6.72468C72.1416 6.93265 73.3986 7.50699 74.4334 8.38431C75.4682 9.26163 76.2404 10.4079 76.6649 11.6963H69.6761V16.3033H76.6649C76.1787 17.7735 75.242 19.0535 73.9875 19.9615C72.7331 20.8695 71.2247 21.3594 69.6761 21.3619Z" fill="#105246"/>
</svg>
