<svg width="79" height="40" viewBox="0 0 79 40" fill="none" xmlns="http://www.w3.org/2000/svg">
<path d="M2.02759 23.1504H4.24949V34.0451H2.02759V23.1504Z" fill="#105246"/>
<path d="M5.53814 30.312C5.53668 29.5295 5.76738 28.7641 6.20107 28.1127C6.63475 27.4613 7.25192 26.9533 7.97448 26.6528C8.69699 26.3523 9.49244 26.2729 10.2601 26.4247C11.0278 26.5765 11.7332 26.9525 12.287 27.5054C12.8409 28.0582 13.2183 28.7629 13.3715 29.5303C13.5248 30.2976 13.4469 31.0933 13.1477 31.8164C12.8486 32.5395 12.3417 33.1576 11.6911 33.5925C11.0406 34.0275 10.2757 34.2595 9.49315 34.2595C8.97268 34.2655 8.45636 34.1675 7.97432 33.9713C7.4923 33.7751 7.05427 33.4847 6.68592 33.117C6.31758 32.7494 6.02632 32.3119 5.82923 31.8302C5.63214 31.3485 5.53318 30.8324 5.53814 30.312ZM11.2113 30.312C11.2026 29.9742 11.0945 29.6464 10.9004 29.3698C10.7064 29.0931 10.4351 28.8798 10.1204 28.7565C9.80577 28.6333 9.46177 28.6056 9.1315 28.6768C8.80115 28.748 8.49919 28.9151 8.26326 29.157C8.02742 29.399 7.86813 29.7052 7.80533 30.0373C7.74255 30.3693 7.77908 30.7125 7.91032 31.0238C8.04162 31.3352 8.26177 31.601 8.54326 31.7879C8.82483 31.9748 9.15519 32.0746 9.49315 32.0747C9.72428 32.0812 9.95432 32.0397 10.1687 31.9528C10.383 31.8659 10.5771 31.7355 10.7386 31.5699C10.9 31.4042 11.0254 31.207 11.1067 30.9905C11.1881 30.774 11.2237 30.543 11.2113 30.312Z" fill="#105246"/>
<path d="M22.3801 26.5793V33.6745C22.3801 36.1853 20.4174 37.2444 18.4325 37.2444C17.7346 37.2963 17.0357 37.1551 16.4126 36.8364C15.7895 36.5176 15.2661 36.0336 14.8997 35.4372L16.8106 34.3337C16.9622 34.6393 17.2021 34.8924 17.4992 35.0601C17.7963 35.2278 18.1369 35.3024 18.477 35.2743C18.7007 35.3116 18.93 35.297 19.1473 35.2316C19.3645 35.1663 19.5638 35.0519 19.7299 34.8973C19.8958 34.7427 20.0241 34.5521 20.1048 34.3401C20.1856 34.1281 20.2165 33.9004 20.1952 33.6745V32.9857C19.934 33.3071 19.6007 33.5624 19.2224 33.731C18.8441 33.8995 18.4314 33.9766 18.0178 33.956C17.0121 33.956 16.0476 33.5565 15.3364 32.8453C14.6252 32.1342 14.2257 31.1696 14.2257 30.1639C14.2257 29.1582 14.6252 28.1937 15.3364 27.4826C16.0476 26.7714 17.0121 26.3719 18.0178 26.3719C18.4312 26.353 18.8433 26.4309 19.2213 26.5993C19.5994 26.7678 19.9328 27.0221 20.1952 27.3421V26.6015L22.3801 26.5793ZM20.1952 30.1639C20.21 29.8038 20.1167 29.4474 19.9274 29.1405C19.7379 28.8338 19.4612 28.5907 19.1325 28.4425C18.8039 28.2943 18.4384 28.2478 18.0831 28.3089C17.7278 28.37 17.399 28.5361 17.1388 28.7856C16.8786 29.0351 16.699 29.3568 16.623 29.7092C16.547 30.0616 16.5783 30.4287 16.7126 30.7632C16.847 31.0978 17.0783 31.3845 17.3768 31.5865C17.6754 31.7886 18.0276 31.8967 18.3881 31.897C18.6234 31.9136 18.8596 31.8809 19.0814 31.8006C19.3033 31.7204 19.5059 31.5947 19.6761 31.4314C19.8463 31.2681 19.9805 31.0709 20.0699 30.8526C20.1594 30.6343 20.202 30.3998 20.1952 30.1639Z" fill="#105246"/>
<path d="M23.6614 30.312C23.6599 29.5295 23.8907 28.7641 24.3243 28.1127C24.7581 27.4613 25.3752 26.9533 26.0978 26.6528C26.8203 26.3523 27.6157 26.2729 28.3834 26.4247C29.1511 26.5765 29.8565 26.9525 30.4104 27.5054C30.9642 28.0582 31.3416 28.7629 31.4948 29.5303C31.648 30.2976 31.5701 31.0933 31.271 31.8164C30.9719 32.5395 30.465 33.1576 29.8145 33.5925C29.1639 34.0275 28.3989 34.2595 27.6164 34.2595C27.096 34.2655 26.5796 34.1675 26.0976 33.9713C25.6156 33.7751 25.1775 33.4847 24.8092 33.117C24.4409 32.7494 24.1496 32.3119 23.9525 31.8302C23.7554 31.3485 23.6564 30.8324 23.6614 30.312ZM29.3347 30.312C29.3259 29.9742 29.2178 29.6464 29.0237 29.3698C28.8297 29.0931 28.5584 28.8798 28.2437 28.7565C27.9291 28.6333 27.5851 28.6056 27.2548 28.6768C26.9244 28.748 26.6225 28.9151 26.3865 29.157C26.1507 29.399 25.9914 29.7052 25.9286 30.0373C25.8658 30.3693 25.9024 30.7125 26.0336 31.0238C26.1649 31.3352 26.385 31.601 26.6665 31.7879C26.9481 31.9748 27.2785 32.0746 27.6164 32.0747C27.8464 32.0791 28.0748 32.0361 28.2874 31.9482C28.4999 31.8604 28.6922 31.7297 28.852 31.5643C29.0119 31.399 29.1359 31.2024 29.2164 30.9869C29.2969 30.7714 29.3321 30.5416 29.3199 30.312H29.3347Z" fill="#105246"/>
<path d="M32.6008 24.5794C32.6008 24.3128 32.6799 24.0522 32.828 23.8305C32.9761 23.6089 33.1866 23.4361 33.4329 23.3341C33.6793 23.232 33.9502 23.2053 34.2117 23.2573C34.4732 23.3093 34.7134 23.4377 34.9019 23.6262C35.0905 23.8148 35.2188 24.0549 35.2708 24.3164C35.3229 24.5779 35.2961 24.849 35.1942 25.0952C35.0921 25.3415 34.9193 25.5521 34.6977 25.7002C34.476 25.8482 34.2154 25.9273 33.9487 25.9273C33.5919 25.9254 33.2502 25.7828 32.9978 25.5304C32.7454 25.278 32.6028 24.9363 32.6008 24.5794ZM32.8304 26.5791H35.0523V34.0446H32.8304V26.5791Z" fill="#105246"/>
<path d="M44.7397 30.3121C44.7666 30.8055 44.6957 31.2995 44.531 31.7655C44.3662 32.2314 44.111 32.6602 43.7799 33.0271C43.4487 33.394 43.0483 33.6918 42.6017 33.9034C42.155 34.1149 41.6709 34.236 41.1773 34.2597C40.7629 34.2795 40.349 34.2083 39.9652 34.0509C39.5813 33.8935 39.2366 33.6538 38.9554 33.3487V37.0518H36.7335V26.5793H38.9554V27.2829C39.2366 26.9778 39.5813 26.7381 39.9652 26.5807C40.349 26.4233 40.7629 26.3521 41.1773 26.3719C41.6703 26.3956 42.1538 26.5165 42.5999 26.7275C43.0461 26.9386 43.4461 27.2357 43.7771 27.6019C44.1082 27.968 44.3636 28.3958 44.5287 28.8609C44.694 29.326 44.7657 29.8192 44.7397 30.3121ZM42.5178 30.3121C42.5091 29.9645 42.3985 29.627 42.1998 29.3416C42.0011 29.0563 41.7232 28.8354 41.4003 28.7064C41.0774 28.5774 40.7236 28.5459 40.3831 28.616C40.0425 28.6859 39.7298 28.8543 39.484 29.1002C39.2381 29.3461 39.0698 29.6586 38.9997 29.9993C38.9298 30.3399 38.9612 30.6936 39.0901 31.0165C39.2192 31.3394 39.44 31.6174 39.7254 31.816C40.0109 32.0146 40.3483 32.1252 40.6959 32.134C40.9385 32.1495 41.1815 32.1128 41.4088 32.0265C41.636 31.9401 41.8421 31.8062 42.0134 31.6336C42.1845 31.461 42.3168 31.2538 42.4013 31.0259C42.4857 30.7979 42.5204 30.5546 42.503 30.3121H42.5178Z" fill="#105246"/>
<path d="M51.6573 31.8083C51.6573 33.5266 50.176 34.2598 48.5466 34.2598C47.8957 34.3174 47.2425 34.1789 46.6709 33.8621C46.0995 33.5453 45.6358 33.0648 45.3397 32.4823L47.2802 31.3787C47.3589 31.6481 47.5276 31.8825 47.7579 32.0428C47.9883 32.2031 48.2666 32.2798 48.5466 32.2601C49.0873 32.2601 49.3539 32.0897 49.3539 31.7935C49.3539 30.9714 45.6508 31.4084 45.6508 28.831C45.6508 27.2016 47.0283 26.3794 48.6133 26.3794C49.1982 26.3617 49.7771 26.5006 50.2902 26.7819C50.8033 27.0632 51.2318 27.4766 51.5314 27.9792L49.5836 29.0013C49.4975 28.8057 49.3565 28.6393 49.1777 28.5223C48.9989 28.4052 48.79 28.3427 48.5763 28.3421C48.1912 28.3421 47.9542 28.4903 47.9542 28.7643C47.9838 29.616 51.6573 29.0457 51.6573 31.8083Z" fill="#105246"/>
<path d="M59.8338 26.5791V34.0447H57.6118V33.3485C57.3534 33.6578 57.0254 33.9016 56.6546 34.06C56.284 34.2183 55.881 34.2866 55.4788 34.2595C53.9975 34.2595 52.6866 33.1855 52.6866 31.1637V26.5791H54.9085V30.8378C54.889 31.0193 54.9102 31.2028 54.9704 31.3751C55.0306 31.5474 55.1285 31.7041 55.2568 31.8339C55.3852 31.9637 55.5408 32.0633 55.7125 32.1254C55.8841 32.1876 56.0674 32.2106 56.2491 32.1931C57.0638 32.1931 57.6341 31.7191 57.6341 30.66V26.5791H59.8338Z" fill="#105246"/>
<path d="M72.6763 29.4678V34.0449H70.4543V29.6604C70.4543 28.9198 70.0914 28.4309 69.3805 28.4309C68.6695 28.4309 68.2103 28.9568 68.2103 29.8382V34.0449H65.9884V29.6604C65.9884 28.9198 65.6328 28.4309 64.9144 28.4309C64.1961 28.4309 63.7517 28.9568 63.7517 29.8382V34.0449H61.5298V26.5794H63.7517V27.2682C63.9839 26.964 64.2885 26.7226 64.6377 26.5662C64.987 26.4096 65.3698 26.3429 65.7514 26.372C66.1346 26.3534 66.5161 26.4344 66.8587 26.6069C67.2014 26.7796 67.4935 27.038 67.7066 27.3571C67.9545 27.0235 68.2829 26.7582 68.6611 26.5859C69.0393 26.4137 69.455 26.34 69.8692 26.372C71.5579 26.372 72.6763 27.6015 72.6763 29.4678Z" fill="#105246"/>
<path d="M74.5724 26.5348C75.4886 26.5348 76.2314 25.792 76.2314 24.8758C76.2314 23.9595 75.4886 23.2168 74.5724 23.2168C73.6562 23.2168 72.9133 23.9595 72.9133 24.8758C72.9133 25.792 73.6562 26.5348 74.5724 26.5348Z" fill="#105246"/>
<path d="M27.172 17.4994C31.4628 17.4994 34.9411 14.021 34.9411 9.73014C34.9411 5.43934 31.4628 1.96094 27.172 1.96094C22.8811 1.96094 19.4027 5.43934 19.4027 9.73014C19.4027 14.021 22.8811 17.4994 27.172 17.4994Z" fill="#105246"/>
<path d="M44.5398 17.4994C48.8306 17.4994 52.3089 14.021 52.3089 9.73014C52.3089 5.43934 48.8306 1.96094 44.5398 1.96094C40.2489 1.96094 36.7705 5.43934 36.7705 9.73014C36.7705 14.021 40.2489 17.4994 44.5398 17.4994Z" fill="#105246"/>
<path d="M17.5734 1.96094H2.04236V17.4919H17.5734V1.96094Z" fill="#105246"/>
</svg>
