<svg width="62" height="30" viewBox="0 0 62 30" fill="none" xmlns="http://www.w3.org/2000/svg">
<g clip-path="url(#clip0_4026_1824)">
<path d="M60.1746 3.92871C60.1746 3.87939 60.1322 3.84124 60.0829 3.84392C60.0374 3.8464 59.9999 3.88311 59.9999 3.92866V4.00966C59.9999 4.18921 59.8544 4.33477 59.6748 4.33477C59.4953 4.33477 59.3498 4.18921 59.3498 4.00966C59.3498 3.72849 59.1922 3.47626 58.9952 3.27569C58.6368 2.91094 58.4194 2.39266 58.527 1.9293C58.7184 1.10572 59.1714 0.75 59.9998 0.75C60.8282 0.75 61.4998 1.42157 61.4998 2.25C61.4998 2.51134 61.433 2.75707 61.3155 2.97103C61.0319 3.48735 60.6177 3.61804 60.6177 4.2071V4.71365C60.6177 4.83602 60.5186 4.93521 60.3962 4.93521C60.2738 4.93521 60.1746 4.83602 60.1746 4.71365V3.92871Z" fill="#105246"/>
<path d="M33.1034 6.35452C37.5951 7.12337 42.5328 6.65446 46.8963 7.72878C51.9391 9.23103 54.7831 13.3391 46.5605 14.3013C42.206 14.6394 37.8005 13.9241 33.5018 14.6847C28.949 15.6146 24.2743 17.1809 19.3316 16.422C14.8039 15.7239 10.9133 12.9612 11.0327 10.0237C11.0075 7.13807 15.2503 5.48948 19.3591 4.96235C24.0804 4.47794 28.6739 5.48725 33.1034 6.35452ZM33.3666 5.82731C9.53733 0.304094 8.0293 8.81283 8.0032 9.99176C7.80835 13.5088 12.4782 17.1807 18.0251 17.9591C23.7869 18.7677 28.7395 16.4918 33.8227 15.2574C38.7818 14.3949 43.5739 15.5094 48.5363 15.0865C56.8025 14.3821 54.9535 8.33238 49.1054 6.95423C44.1425 5.78469 38.4758 6.70127 33.3666 5.82731Z" fill="#105246"/>
<path d="M32.6246 7.72262C36.0471 8.1637 45.1519 8.75942 44.8792 11.3369C44.5312 12.842 37.4271 12.6614 32.8355 13.1529C28.8292 13.5502 18.9756 14.2262 19.1002 10.146C19.0675 6.40202 29.1045 7.33804 32.6246 7.72262ZM32.766 7.21955C29.2664 6.72229 25.4777 6.18803 21.889 6.65578C19.1386 7.01429 16.0759 8.1469 16.1412 10.0968C16.0223 12.1299 18.9653 13.7244 21.9088 14.2503C25.5806 14.9063 29.4435 14.2154 33.048 13.7198C38.0703 13.113 47.1022 13.7129 47.4626 11.5895C47.8115 8.26952 37.0257 7.79777 32.766 7.21955Z" fill="#105246"/>
<path d="M32.5914 9.20847C34.3352 9.30349 38.5022 9.73894 38.1016 10.7376C37.6156 11.6985 33.8919 11.6985 32.6431 11.737C31.096 11.749 26.9933 11.7933 26.8406 10.3806C26.8655 8.97162 31.2213 9.16549 32.5914 9.20847ZM32.646 8.67574C30.5333 8.54449 24.0662 8.14339 24.0434 10.336C23.8734 12.4063 30.6115 12.2975 32.7494 12.3183C34.3352 12.2975 39.9955 12.2504 40.7294 10.9876C41.2506 9.52122 34.7785 8.86804 32.646 8.67574Z" fill="#105246"/>
<path fill-rule="evenodd" clip-rule="evenodd" d="M30.5707 2.97853C31.8059 3.42796 33.0505 3.88079 34.3353 4.29916C36.9304 5.32163 40.6642 4.90245 44.5687 4.46407C48.1339 4.06378 51.8416 3.64749 54.9552 4.29826C58.2871 4.99483 60.0895 8.09092 59.9962 11.1021L59.9995 11.0977V17.7877C60.0195 20.9127 58.0129 24.0263 53.5711 24.3595C50.9011 24.5598 48.2969 24.1649 45.7113 23.7728C42.103 23.2258 38.531 22.6842 34.8673 23.7731C32.9539 24.4598 31.1743 25.3734 29.3917 26.2886C25.3144 28.3818 21.2198 30.4838 15.4672 29.9015C6.31433 28.9749 -0.0645102 23.9335 0.000492257 16.9274C0.00323884 16.7959 0.0120279 16.6652 0.0241129 16.5348V10.8169C0.00561921 10.5388 -0.00188812 10.2576 0.000675362 9.97275C0.109623 4.80158 7.59262 0.516202 15.7168 0.0455979C21.5771 -0.293834 26.0101 1.31912 30.5707 2.97853ZM43.406 5.23171C39.8307 5.44993 36.3473 5.66254 33.9202 4.90359C33.1384 4.65999 32.3389 4.40163 31.5367 4.1424C29.5669 3.50574 27.5806 2.8638 25.7973 2.42203C14.3768 -0.401546 3.54816 3.82705 3.00653 9.96645C2.59546 14.0394 8.44695 20.0272 16.265 20.9264C19.809 21.2375 22.8484 20.6493 25.9357 19.6007C27.1819 19.1378 28.382 18.6314 29.5816 18.125C31.1663 17.4562 32.7504 16.7875 34.4398 16.2199C38.0615 15.3507 41.5788 15.7499 44.982 16.1362C47.2846 16.3976 49.5347 16.6529 51.7294 16.5056C53.8415 16.2647 55.5558 15.7404 56.6165 14.53C58.7693 11.6423 58.5539 6.77998 52.7947 5.37534C50.0947 4.8235 46.711 5.03 43.406 5.23171Z" fill="#105246"/>
</g>
<defs>
<clipPath id="clip0_4026_1824">
<rect width="61.5" height="30" fill="white"/>
</clipPath>
</defs>
</svg>
