<svg width="133" height="28" viewBox="0 0 133 28" fill="none" xmlns="http://www.w3.org/2000/svg">
<g clip-path="url(#clip0_4014_1439)">
<path d="M22.4 7H29.4C33.266 7 36.4 10.134 36.4 14C36.4 17.866 33.266 21 29.4 21H25.2V19.6H29.4C32.4928 19.6 35 17.0928 35 14C35 10.9072 32.4928 8.4 29.4 8.4H22.4V15.4H29.4C30.1732 15.4 30.8 14.7732 30.8 14C30.8 13.2268 30.1732 12.6 29.4 12.6H25.2V11.2H29.4C30.9464 11.2 32.2 12.4536 32.2 14C32.2 15.5464 30.9464 16.8 29.4 16.8H22.4V23.8H29.4C34.8124 23.8 39.2 19.4124 39.2 14C39.2 8.5876 34.8124 4.2 29.4 4.2H25.2V2.8H29.4C35.5856 2.8 40.6 7.81438 40.6 14C40.6 20.1856 35.5856 25.2 29.4 25.2H22.4V28H29.4C37.132 28 43.4 21.732 43.4 14C43.4 6.26802 37.132 0 29.4 0H22.4V7Z" fill="#105246"/>
<path d="M14 0C6.26802 0 0 6.26802 0 14C0 21.732 6.26802 28 14 28H21V21H14C10.134 21 7 17.866 7 14C7 10.134 10.134 7 14 7H18.2V8.4H14C10.9072 8.4 8.4 10.9072 8.4 14C8.4 17.0928 10.9072 19.6 14 19.6H21V12.6H14C13.2268 12.6 12.6 13.2268 12.6 14C12.6 14.7732 13.2268 15.4 14 15.4H18.2V16.8H14C12.4536 16.8 11.2 15.5464 11.2 14C11.2 12.4536 12.4536 11.2 14 11.2H21V4.2H14C8.5876 4.2 4.2 8.5876 4.2 14C4.2 19.4124 8.5876 23.8 14 23.8H18.2V25.2H14C7.81438 25.2 2.8 20.1856 2.8 14C2.8 7.81438 7.81438 2.8 14 2.8H21V0H14Z" fill="#105246"/>
</g>
<path d="M53.4636 21V4.742H55.5536V19.064H61.7136V21H53.4636ZM68.7592 15.148V13.234H79.6712C79.6272 14.378 79.3779 15.4487 78.9232 16.446C78.4686 17.4287 77.8599 18.2793 77.0972 18.998C76.3492 19.7167 75.4692 20.2813 74.4572 20.692C73.4452 21.088 72.3526 21.286 71.1792 21.286C69.9326 21.286 68.7666 21.0733 67.6812 20.648C66.6106 20.208 65.6792 19.614 64.8872 18.866C64.0952 18.1033 63.4719 17.2087 63.0172 16.182C62.5626 15.1407 62.3352 14.026 62.3352 12.838C62.3352 11.6647 62.5552 10.572 62.9952 9.56C63.4499 8.53333 64.0586 7.646 64.8212 6.898C65.5986 6.13533 66.5079 5.54133 67.5492 5.116C68.6052 4.676 69.7346 4.456 70.9372 4.456C71.8319 4.456 72.6899 4.57333 73.5112 4.808C74.3326 5.028 75.0806 5.35067 75.7552 5.776C76.4446 6.20133 77.0459 6.70733 77.5592 7.294C78.0726 7.88067 78.4612 8.526 78.7252 9.23H76.3272C75.7846 8.32067 75.0512 7.624 74.1272 7.14C73.2032 6.656 72.1619 6.414 71.0032 6.414C70.0646 6.414 69.1992 6.58267 68.4072 6.92C67.6152 7.24267 66.9259 7.69733 66.3392 8.284C65.7526 8.856 65.2906 9.538 64.9532 10.33C64.6159 11.1073 64.4472 11.958 64.4472 12.882C64.4472 13.7913 64.6159 14.6347 64.9532 15.412C65.3052 16.1893 65.7746 16.8713 66.3612 17.458C66.9626 18.03 67.6666 18.4847 68.4732 18.822C69.2799 19.1593 70.1526 19.328 71.0912 19.328C71.7806 19.328 72.4406 19.2253 73.0712 19.02C73.7166 18.8147 74.3032 18.5287 74.8312 18.162C75.3592 17.7807 75.8139 17.3407 76.1952 16.842C76.5912 16.3287 76.8772 15.764 77.0532 15.148H68.7592ZM81.6394 21V4.742H85.9734C87.044 4.742 87.9094 4.808 88.5694 4.94C89.2294 5.072 89.8087 5.292 90.3074 5.6C90.938 5.996 91.422 6.546 91.7594 7.25C92.1114 7.954 92.2874 8.768 92.2874 9.692C92.2874 10.572 92.126 11.3567 91.8034 12.046C91.4807 12.7353 91.026 13.2707 90.4394 13.652C90.2047 13.828 89.948 13.9747 89.6694 14.092C89.3907 14.1947 89.0827 14.2827 88.7454 14.356C88.408 14.4293 88.0267 14.4807 87.6014 14.51C87.176 14.5393 86.692 14.554 86.1494 14.554H83.7294V21H81.6394ZM83.7294 12.618H86.0394C86.714 12.618 87.264 12.5813 87.6894 12.508C88.1294 12.4347 88.5034 12.3247 88.8114 12.178C89.2367 11.9727 89.5667 11.6573 89.8014 11.232C90.0507 10.8067 90.1754 10.3007 90.1754 9.714C90.1754 9.01 90.0287 8.42333 89.7354 7.954C89.442 7.47 89.024 7.14 88.4814 6.964C88.144 6.876 87.748 6.81 87.2934 6.766C86.8534 6.70733 86.296 6.678 85.6214 6.678H83.7294V12.618ZM92.864 16.424H95.064C95.1666 17.3627 95.4746 18.0813 95.988 18.58C96.5013 19.0787 97.1906 19.328 98.056 19.328C98.4813 19.328 98.87 19.262 99.222 19.13C99.574 18.9833 99.8746 18.7853 100.124 18.536C100.373 18.2867 100.571 17.9933 100.718 17.656C100.865 17.304 100.938 16.9227 100.938 16.512C100.938 16.0573 100.857 15.6687 100.696 15.346C100.535 15.0087 100.3 14.7227 99.992 14.488C99.684 14.2387 99.3026 14.0187 98.848 13.828C98.408 13.6373 97.902 13.454 97.33 13.278C96.6406 13.058 96.0466 12.8087 95.548 12.53C95.0493 12.2513 94.6386 11.9433 94.316 11.606C94.008 11.254 93.7806 10.858 93.634 10.418C93.4873 9.96333 93.414 9.46467 93.414 8.922C93.414 8.27667 93.5313 7.68267 93.766 7.14C94.0006 6.59733 94.316 6.128 94.712 5.732C95.1226 5.336 95.6066 5.028 96.164 4.808C96.7213 4.57333 97.33 4.456 97.99 4.456C98.6646 4.456 99.2806 4.566 99.838 4.786C100.41 4.99133 100.894 5.292 101.29 5.688C101.701 6.06933 102.023 6.53867 102.258 7.096C102.493 7.65333 102.617 8.262 102.632 8.922H100.476C100.417 8.15933 100.161 7.55067 99.706 7.096C99.266 6.64133 98.6866 6.414 97.968 6.414C97.2493 6.414 96.6626 6.64867 96.208 7.118C95.7533 7.57267 95.526 8.152 95.526 8.856C95.526 9.17867 95.5773 9.472 95.68 9.736C95.7826 9.98533 95.9513 10.2127 96.186 10.418C96.4206 10.6233 96.7286 10.8213 97.11 11.012C97.506 11.188 97.9826 11.364 98.54 11.54C99.3466 11.7893 100.036 12.068 100.608 12.376C101.18 12.6693 101.642 13.0067 101.994 13.388C102.361 13.7693 102.625 14.202 102.786 14.686C102.947 15.17 103.028 15.72 103.028 16.336C103.028 17.04 102.903 17.6927 102.654 18.294C102.405 18.8953 102.053 19.4233 101.598 19.878C101.158 20.318 100.63 20.6627 100.014 20.912C99.4126 21.1613 98.7526 21.286 98.034 21.286C97.3006 21.286 96.626 21.176 96.01 20.956C95.394 20.7213 94.8586 20.3913 94.404 19.966C93.9493 19.526 93.59 19.0127 93.326 18.426C93.062 17.8247 92.908 17.1573 92.864 16.424ZM104.68 21V4.742H107.76L113.15 18.074L118.54 4.742H121.598V21H119.508V7.294L114.008 21H112.248L106.77 7.294V21H104.68ZM125.124 10.264L126.334 8.306L124.09 8.394V7.096L126.356 7.184L125.146 5.204L126.312 4.566L127.412 6.502L128.512 4.544L129.634 5.226L128.402 7.184L130.624 7.096V8.394L128.424 8.328L129.612 10.22L128.512 10.902L127.39 8.922L126.29 10.902L125.124 10.264Z" fill="#105246"/>
<defs>
<clipPath id="clip0_4014_1439">
<rect width="43.4" height="28" fill="white"/>
</clipPath>
</defs>
</svg>
