<svg width="93" height="32" viewBox="0 0 93 32" fill="none" xmlns="http://www.w3.org/2000/svg">
<g clip-path="url(#clip0_4014_1430)">
<mask id="mask0_4014_1430" style="mask-type:luminance" maskUnits="userSpaceOnUse" x="0" y="0" width="32" height="32">
<path d="M32 0H0V32H32V0Z" fill="white"/>
</mask>
<g mask="url(#mask0_4014_1430)">
<path d="M31.9498 0.0504688C23.1637 8.89109 23.1803 23.1803 32 32C23.1803 23.1803 8.89094 23.1634 0.0503125 31.9496C8.83626 23.1091 8.81968 8.81968 0 0C8.81968 8.81968 23.1091 8.83672 31.9498 0.0504688Z" fill="#105246"/>
</g>
</g>
<path d="M40.8272 18.424H43.0272C43.1299 19.3627 43.4379 20.0813 43.9512 20.58C44.4646 21.0787 45.1539 21.328 46.0192 21.328C46.4446 21.328 46.8332 21.262 47.1852 21.13C47.5372 20.9833 47.8379 20.7853 48.0872 20.536C48.3366 20.2867 48.5346 19.9933 48.6812 19.656C48.8279 19.304 48.9012 18.9227 48.9012 18.512C48.9012 18.0573 48.8206 17.6687 48.6592 17.346C48.4979 17.0087 48.2632 16.7227 47.9552 16.488C47.6472 16.2387 47.2659 16.0187 46.8112 15.828C46.3712 15.6373 45.8652 15.454 45.2932 15.278C44.6039 15.058 44.0099 14.8087 43.5112 14.53C43.0126 14.2513 42.6019 13.9433 42.2792 13.606C41.9712 13.254 41.7439 12.858 41.5972 12.418C41.4506 11.9633 41.3772 11.4647 41.3772 10.922C41.3772 10.2767 41.4946 9.68267 41.7292 9.14C41.9639 8.59733 42.2792 8.128 42.6752 7.732C43.0859 7.336 43.5699 7.028 44.1272 6.808C44.6846 6.57333 45.2932 6.456 45.9532 6.456C46.6279 6.456 47.2439 6.566 47.8012 6.786C48.3732 6.99133 48.8572 7.292 49.2532 7.688C49.6639 8.06933 49.9866 8.53867 50.2212 9.096C50.4559 9.65333 50.5806 10.262 50.5952 10.922H48.4392C48.3806 10.1593 48.1239 9.55067 47.6692 9.096C47.2292 8.64133 46.6499 8.414 45.9312 8.414C45.2126 8.414 44.6259 8.64867 44.1712 9.118C43.7166 9.57267 43.4892 10.152 43.4892 10.856C43.4892 11.1787 43.5406 11.472 43.6432 11.736C43.7459 11.9853 43.9146 12.2127 44.1492 12.418C44.3839 12.6233 44.6919 12.8213 45.0732 13.012C45.4692 13.188 45.9459 13.364 46.5032 13.54C47.3099 13.7893 47.9992 14.068 48.5712 14.376C49.1432 14.6693 49.6052 15.0067 49.9572 15.388C50.3239 15.7693 50.5879 16.202 50.7492 16.686C50.9106 17.17 50.9912 17.72 50.9912 18.336C50.9912 19.04 50.8666 19.6927 50.6172 20.294C50.3679 20.8953 50.0159 21.4233 49.5612 21.878C49.1212 22.318 48.5932 22.6627 47.9772 22.912C47.3759 23.1613 46.7159 23.286 45.9972 23.286C45.2639 23.286 44.5892 23.176 43.9732 22.956C43.3572 22.7213 42.8219 22.3913 42.3672 21.966C41.9126 21.526 41.5532 21.0127 41.2892 20.426C41.0252 19.8247 40.8712 19.1573 40.8272 18.424ZM53.5016 23V12.792H51.2796V10.922H53.5016V6.742H55.5476V10.922H57.9456V12.792H55.5476V23H53.5016ZM58.5269 16.994C58.5269 16.07 58.6882 15.2267 59.0109 14.464C59.3336 13.6867 59.7736 13.0193 60.3309 12.462C60.8882 11.89 61.5482 11.4427 62.3109 11.12C63.0882 10.7973 63.9242 10.636 64.8189 10.636C65.8309 10.636 66.6889 10.812 67.3929 11.164C68.1116 11.516 68.7569 12.088 69.3289 12.88V10.922H71.3089V23H69.3289V21.064C68.6982 21.8707 68.0456 22.4427 67.3709 22.78C66.6962 23.1173 65.8676 23.286 64.8849 23.286C63.9756 23.286 63.1322 23.132 62.3549 22.824C61.5776 22.5013 60.9029 22.0613 60.3309 21.504C59.7736 20.9467 59.3336 20.2867 59.0109 19.524C58.6882 18.7467 58.5269 17.9033 58.5269 16.994ZM60.6169 16.972C60.6169 17.6027 60.7269 18.1893 60.9469 18.732C61.1816 19.26 61.4896 19.722 61.8709 20.118C62.2669 20.514 62.7289 20.8293 63.2569 21.064C63.7996 21.284 64.3862 21.394 65.0169 21.394C65.6329 21.394 66.1976 21.284 66.7109 21.064C67.2389 20.8293 67.6936 20.514 68.0749 20.118C68.4562 19.722 68.7496 19.26 68.9549 18.732C69.1749 18.1893 69.2849 17.5953 69.2849 16.95C69.2849 16.3047 69.1749 15.718 68.9549 15.19C68.7349 14.6473 68.4269 14.178 68.0309 13.782C67.6496 13.386 67.1876 13.078 66.6449 12.858C66.1169 12.638 65.5376 12.528 64.9069 12.528C64.3056 12.528 63.7409 12.6453 63.2129 12.88C62.6996 13.1 62.2449 13.4153 61.8489 13.826C61.4676 14.222 61.1669 14.6913 60.9469 15.234C60.7269 15.762 60.6169 16.3413 60.6169 16.972ZM73.443 23V10.922H75.423V12.462C75.599 12.1393 75.7824 11.868 75.973 11.648C76.1784 11.428 76.4057 11.2447 76.655 11.098C76.919 10.9513 77.2124 10.8413 77.535 10.768C77.8577 10.6947 78.2317 10.6507 78.657 10.636V12.638C77.601 12.7113 76.809 13.034 76.281 13.606C75.7677 14.1633 75.511 14.9847 75.511 16.07V23H73.443ZM89.3671 19.15H91.5451C91.3397 19.766 91.0391 20.3307 90.6431 20.844C90.2617 21.3427 89.8144 21.7753 89.3011 22.142C88.8024 22.5087 88.2451 22.7947 87.6291 23C87.0131 23.1907 86.3751 23.286 85.7151 23.286C84.8057 23.286 83.9624 23.1247 83.1851 22.802C82.4077 22.4647 81.7257 22.01 81.1391 21.438C80.5671 20.866 80.1124 20.1987 79.7751 19.436C79.4377 18.6587 79.2691 17.8227 79.2691 16.928C79.2691 16.048 79.4304 15.2267 79.7531 14.464C80.0904 13.7013 80.5377 13.034 81.0951 12.462C81.6671 11.89 82.3344 11.4427 83.0971 11.12C83.8744 10.7973 84.6957 10.636 85.5611 10.636C86.4411 10.636 87.2624 10.8047 88.0251 11.142C88.8024 11.4647 89.4771 11.912 90.0491 12.484C90.6211 13.0413 91.0684 13.7013 91.3911 14.464C91.7284 15.2267 91.8971 16.048 91.8971 16.928C91.8971 17.0747 91.8897 17.214 91.8751 17.346C91.8604 17.4633 91.8384 17.5953 91.8091 17.742H81.4251C81.4691 18.27 81.6084 18.754 81.8431 19.194C82.0924 19.634 82.4004 20.0227 82.7671 20.36C83.1484 20.6827 83.5884 20.9393 84.0871 21.13C84.5857 21.306 85.1137 21.394 85.6711 21.394C86.4777 21.394 87.2037 21.196 87.8491 20.8C88.5091 20.404 89.0151 19.854 89.3671 19.15ZM81.4251 15.916H89.8071C89.5577 14.8453 89.0591 14.0167 88.3111 13.43C87.5777 12.8287 86.6684 12.528 85.5831 12.528C85.0551 12.528 84.5637 12.6087 84.1091 12.77C83.6544 12.9167 83.2437 13.144 82.8771 13.452C82.5251 13.7453 82.2244 14.1047 81.9751 14.53C81.7257 14.9407 81.5424 15.4027 81.4251 15.916Z" fill="#105246"/>
<defs>
<clipPath id="clip0_4014_1430">
<rect width="32" height="32" fill="white"/>
</clipPath>
</defs>
</svg>
