<svg width="139" height="32" viewBox="0 0 139 32" fill="none" xmlns="http://www.w3.org/2000/svg">
<g clip-path="url(#clip0_4014_1412)">
<path d="M12.16 14.4C13.2204 14.4 14.08 13.5404 14.08 12.48C14.08 11.4196 13.2204 10.56 12.16 10.56C11.0996 10.56 10.24 11.4196 10.24 12.48C10.24 13.5404 11.0996 14.4 12.16 14.4Z" fill="#105246"/>
<path d="M11.84 25.6C12.9004 25.6 13.76 24.7403 13.76 23.68C13.76 22.6197 12.9004 21.76 11.84 21.76C10.7797 21.76 9.92004 22.6197 9.92004 23.68C9.92004 24.7403 10.7797 25.6 11.84 25.6Z" fill="#105246"/>
<path d="M10.24 9.28C10.5934 9.28 10.88 8.99346 10.88 8.64C10.88 8.28654 10.5934 8 10.24 8C9.88652 8 9.59998 8.28654 9.59998 8.64C9.59998 8.99346 9.88652 9.28 10.24 9.28Z" fill="#105246"/>
<path d="M9.43996 18.24C9.70506 18.24 9.91996 18.0251 9.91996 17.76C9.91996 17.4949 9.70506 17.28 9.43996 17.28C9.17486 17.28 8.95996 17.4949 8.95996 17.76C8.95996 18.0251 9.17486 18.24 9.43996 18.24Z" fill="#105246"/>
<path d="M21.76 18.72C22.0251 18.72 22.24 18.5051 22.24 18.24C22.24 17.9749 22.0251 17.76 21.76 17.76C21.4949 17.76 21.28 17.9749 21.28 18.24C21.28 18.5051 21.4949 18.72 21.76 18.72Z" fill="#105246"/>
<path d="M17.12 25.92C17.3851 25.92 17.6 25.7051 17.6 25.44C17.6 25.1749 17.3851 24.96 17.12 24.96C16.8549 24.96 16.64 25.1749 16.64 25.44C16.64 25.7051 16.8549 25.92 17.12 25.92Z" fill="#105246"/>
<path d="M16 16C16.3534 16 16.64 15.7135 16.64 15.36C16.64 15.0065 16.3534 14.72 16 14.72C15.6465 14.72 15.36 15.0065 15.36 15.36C15.36 15.7135 15.6465 16 16 16Z" fill="#105246"/>
<path d="M13.6 19.52C14.2185 19.52 14.72 19.0186 14.72 18.4C14.72 17.7814 14.2185 17.28 13.6 17.28C12.9814 17.28 12.48 17.7814 12.48 18.4C12.48 19.0186 12.9814 19.52 13.6 19.52Z" fill="#105246"/>
<path d="M20.48 8.64C21.0103 8.64 21.44 8.21019 21.44 7.68C21.44 7.14981 21.0103 6.72 20.48 6.72C19.9498 6.72 19.52 7.14981 19.52 7.68C19.52 8.21019 19.9498 8.64 20.48 8.64Z" fill="#105246"/>
<path d="M20.0799 15.84C21.538 15.84 22.7199 14.658 22.7199 13.2C22.7199 11.742 21.538 10.56 20.0799 10.56C18.6219 10.56 17.4399 11.742 17.4399 13.2C17.4399 14.658 18.6219 15.84 20.0799 15.84Z" fill="#105246"/>
<path d="M15.52 9.91999C16.3153 9.91999 16.96 9.27529 16.96 8.47999C16.96 7.6847 16.3153 7.03999 15.52 7.03999C14.7247 7.03999 14.08 7.6847 14.08 8.47999C14.08 9.27529 14.7247 9.91999 15.52 9.91999Z" fill="#105246"/>
<path d="M19.04 23.68C20.3655 23.68 21.44 22.6054 21.44 21.28C21.44 19.9546 20.3655 18.88 19.04 18.88C17.7146 18.88 16.64 19.9546 16.64 21.28C16.64 22.6054 17.7146 23.68 19.04 23.68Z" fill="#105246"/>
<path d="M5.3216 29.6C4.73707 29.6131 4.15379 29.5403 3.5904 29.384C3.18901 29.2707 2.82648 29.0493 2.5424 28.744C2.24178 28.3973 2.02838 27.9835 1.92 27.5376C1.76202 26.8862 1.68888 26.2173 1.7024 25.5472V20.2672C1.7024 19.2848 1.5504 18.5696 1.2384 18.0832C0.943624 17.647 0.505501 17.3278 0 17.1808V14.5136C0.8528 14.2272 1.7072 13.4976 1.7072 11.728V6.44799C1.7072 4.94719 1.984 3.88799 2.528 3.28159C3.072 2.67519 4.0304 2.39999 5.4048 2.39999H7.2V5.03359H7.1392C6.78462 5.02955 6.43019 5.04987 6.0784 5.09439C5.76024 5.12924 5.46067 5.26171 5.2208 5.47359C4.99606 5.69879 4.8487 5.98959 4.8 6.30399C4.74155 6.64801 4.71531 6.99671 4.7216 7.34559V12.008C4.72626 12.4739 4.69899 12.9395 4.64 13.4016C4.60189 13.6986 4.51936 13.9883 4.3952 14.2608C4.28022 14.5019 4.12061 14.7191 3.9248 14.9008C3.6505 15.1524 3.35973 15.3855 3.0544 15.5984L2.4576 16.0208L3.0672 16.424C3.36621 16.6146 3.64264 16.8384 3.8912 17.0912C4.0908 17.3008 4.25603 17.5405 4.3808 17.8016C4.51203 18.0843 4.59944 18.3854 4.64 18.6944C4.69645 19.1272 4.72317 19.5635 4.72 20V24.6624C4.71438 25.0022 4.74064 25.3419 4.7984 25.6768C4.84499 25.9827 4.98336 26.2672 5.1952 26.4928C5.42136 26.7086 5.70853 26.8493 6.0176 26.896C6.37931 26.9549 6.74558 26.9811 7.112 26.9744H7.2V29.6H5.3216Z" fill="#105246"/>
<path d="M26.6784 29.6C27.2629 29.6131 27.8463 29.5403 28.4096 29.384C28.8111 29.2707 29.1736 29.0493 29.4576 28.744C29.756 28.3976 29.9677 27.9853 30.0752 27.5408C30.2332 26.8894 30.3064 26.2205 30.2928 25.5504V20.2704C30.2928 19.288 30.4448 18.5728 30.7568 18.0864C31.052 17.6475 31.492 17.3264 32 17.1792V14.5136C31.1472 14.2272 30.2928 13.4976 30.2928 11.728V6.448C30.2928 4.9472 30.016 3.888 29.472 3.2816C28.928 2.6752 27.9696 2.3952 26.592 2.3952H24.8V5.0336H24.8608C25.2154 5.02955 25.5698 5.04987 25.9216 5.0944C26.2397 5.12925 26.5394 5.26171 26.7792 5.4736C27.004 5.6988 27.1514 5.9896 27.2 6.304C27.2584 6.64802 27.2847 6.99672 27.2784 7.3456V12.008C27.2722 12.4737 27.2978 12.9394 27.3552 13.4016C27.3933 13.6986 27.4759 13.9883 27.6 14.2608C27.7151 14.5019 27.8746 14.7191 28.0704 14.9008C28.3447 15.1524 28.6356 15.3855 28.9408 15.5984L29.5376 16.0208L28.928 16.424C28.629 16.6146 28.3527 16.8384 28.104 17.0912C27.9045 17.3008 27.7392 17.5405 27.6144 17.8016C27.4826 18.0862 27.3952 18.3896 27.3552 18.7008C27.3002 19.131 27.2746 19.5646 27.2784 19.9984V24.6608C27.284 25.0006 27.2578 25.3403 27.2 25.6752C27.1618 25.9853 27.021 26.2736 26.8 26.4944C26.5792 26.7154 26.2909 26.8562 25.9808 26.8944C25.6191 26.9533 25.2528 26.9795 24.8864 26.9728H24.8V29.6H26.6784Z" fill="#105246"/>
</g>
<path d="M54.8413 18.644H57.2393C56.858 19.392 56.4106 20.0593 55.8973 20.646C55.384 21.218 54.812 21.702 54.1813 22.098C53.5506 22.494 52.8613 22.7947 52.1133 23C51.38 23.1907 50.6026 23.286 49.7813 23.286C48.564 23.286 47.4346 23.0733 46.3933 22.648C45.352 22.208 44.45 21.614 43.6873 20.866C42.9246 20.118 42.3233 19.2307 41.8833 18.204C41.4433 17.1773 41.2233 16.07 41.2233 14.882C41.2233 13.694 41.436 12.5867 41.8613 11.56C42.3013 10.5333 42.8953 9.646 43.6433 8.898C44.3913 8.13533 45.2786 7.54133 46.3053 7.116C47.3466 6.676 48.454 6.456 49.6273 6.456C50.478 6.456 51.2846 6.566 52.0473 6.786C52.8246 6.99133 53.536 7.29933 54.1813 7.71C54.8413 8.106 55.428 8.59 55.9413 9.162C56.4546 9.734 56.8726 10.3867 57.1953 11.12H54.8413C54.2253 10.196 53.4993 9.514 52.6633 9.074C51.842 8.634 50.852 8.414 49.6933 8.414C48.7986 8.414 47.9626 8.58267 47.1853 8.92C46.408 9.24267 45.7333 9.69 45.1613 10.262C44.604 10.834 44.1566 11.516 43.8193 12.308C43.4966 13.0853 43.3353 13.936 43.3353 14.86C43.3353 15.74 43.504 16.576 43.8413 17.368C44.1786 18.16 44.6333 18.8493 45.2053 19.436C45.792 20.008 46.474 20.47 47.2513 20.822C48.0286 21.1593 48.8573 21.328 49.7373 21.328C50.7786 21.328 51.6953 21.1153 52.4873 20.69C53.294 20.2647 54.0786 19.5827 54.8413 18.644ZM58.4244 16.972C58.4244 16.0627 58.5857 15.2193 58.9084 14.442C59.231 13.6647 59.6784 12.9973 60.2504 12.44C60.837 11.868 61.519 11.428 62.2964 11.12C63.0884 10.7973 63.9464 10.636 64.8704 10.636C65.7504 10.636 66.5717 10.7973 67.3344 11.12C68.097 11.4427 68.757 11.89 69.3144 12.462C69.8717 13.034 70.3117 13.7087 70.6344 14.486C70.957 15.2487 71.1184 16.0847 71.1184 16.994C71.1184 17.8887 70.957 18.7173 70.6344 19.48C70.3264 20.2427 69.8937 20.91 69.3364 21.482C68.779 22.0393 68.119 22.4793 67.3564 22.802C66.5937 23.1247 65.765 23.286 64.8704 23.286C63.961 23.286 63.1104 23.1247 62.3184 22.802C61.541 22.4793 60.859 22.0393 60.2724 21.482C59.7004 20.91 59.2457 20.2427 58.9084 19.48C58.5857 18.7027 58.4244 17.8667 58.4244 16.972ZM64.8484 21.394C65.4497 21.394 66.007 21.284 66.5204 21.064C67.0337 20.844 67.4737 20.5433 67.8404 20.162C68.2217 19.766 68.515 19.2967 68.7204 18.754C68.9404 18.2113 69.0504 17.6247 69.0504 16.994C69.0504 16.3487 68.9404 15.7547 68.7204 15.212C68.515 14.6547 68.2144 14.178 67.8184 13.782C67.437 13.386 66.9824 13.078 66.4544 12.858C65.9264 12.638 65.3544 12.528 64.7384 12.528C64.137 12.528 63.5797 12.6453 63.0664 12.88C62.553 13.1 62.1057 13.408 61.7244 13.804C61.3577 14.2 61.0644 14.6767 60.8444 15.234C60.6244 15.7767 60.5144 16.356 60.5144 16.972C60.5144 17.6027 60.6244 18.1893 60.8444 18.732C61.0644 19.26 61.365 19.722 61.7464 20.118C62.1424 20.514 62.6044 20.8293 63.1324 21.064C63.6604 21.284 64.2324 21.394 64.8484 21.394ZM72.2759 16.972C72.2759 16.0627 72.4372 15.2193 72.7599 14.442C73.0826 13.6647 73.5226 12.99 74.0799 12.418C74.6519 11.846 75.3192 11.3987 76.0819 11.076C76.8592 10.7387 77.6952 10.57 78.5899 10.57C79.4699 10.57 80.2839 10.7387 81.0319 11.076C81.7946 11.4133 82.4546 11.9047 83.0119 12.55V6.742H85.0579V23H83.0779V21.02C82.4619 21.8267 81.8166 22.406 81.1419 22.758C80.4672 23.11 79.6532 23.286 78.6999 23.286C77.7906 23.286 76.9399 23.1247 76.1479 22.802C75.3706 22.4793 74.6959 22.0393 74.1239 21.482C73.5519 20.91 73.0972 20.2427 72.7599 19.48C72.4372 18.7027 72.2759 17.8667 72.2759 16.972ZM74.3659 16.906C74.3659 17.5367 74.4759 18.1233 74.6959 18.666C74.9306 19.2087 75.2459 19.6853 75.6419 20.096C76.0526 20.492 76.5219 20.8073 77.0499 21.042C77.5926 21.2767 78.1792 21.394 78.8099 21.394C79.4112 21.394 79.9686 21.2767 80.4819 21.042C81.0099 20.8073 81.4646 20.492 81.8459 20.096C82.2419 19.6853 82.5499 19.2087 82.7699 18.666C83.0046 18.1233 83.1219 17.544 83.1219 16.928C83.1219 16.2973 83.0046 15.7107 82.7699 15.168C82.5352 14.6253 82.2199 14.156 81.8239 13.76C81.4279 13.364 80.9512 13.0487 80.3939 12.814C79.8512 12.5793 79.2646 12.462 78.6339 12.462C78.0326 12.462 77.4752 12.5793 76.9619 12.814C76.4486 13.0487 75.9939 13.364 75.5979 13.76C75.2166 14.156 74.9159 14.6253 74.6959 15.168C74.4759 15.7107 74.3659 16.29 74.3659 16.906ZM96.7841 19.15H98.9621C98.7567 19.766 98.4561 20.3307 98.0601 20.844C97.6787 21.3427 97.2314 21.7753 96.7181 22.142C96.2194 22.5087 95.6621 22.7947 95.0461 23C94.4301 23.1907 93.7921 23.286 93.1321 23.286C92.2227 23.286 91.3794 23.1247 90.6021 22.802C89.8247 22.4647 89.1427 22.01 88.5561 21.438C87.9841 20.866 87.5294 20.1987 87.1921 19.436C86.8547 18.6587 86.6861 17.8227 86.6861 16.928C86.6861 16.048 86.8474 15.2267 87.1701 14.464C87.5074 13.7013 87.9547 13.034 88.5121 12.462C89.0841 11.89 89.7514 11.4427 90.5141 11.12C91.2914 10.7973 92.1127 10.636 92.9781 10.636C93.8581 10.636 94.6794 10.8047 95.4421 11.142C96.2194 11.4647 96.8941 11.912 97.4661 12.484C98.0381 13.0413 98.4854 13.7013 98.8081 14.464C99.1454 15.2267 99.3141 16.048 99.3141 16.928C99.3141 17.0747 99.3067 17.214 99.2921 17.346C99.2774 17.4633 99.2554 17.5953 99.2261 17.742H88.8421C88.8861 18.27 89.0254 18.754 89.2601 19.194C89.5094 19.634 89.8174 20.0227 90.1841 20.36C90.5654 20.6827 91.0054 20.9393 91.5041 21.13C92.0027 21.306 92.5307 21.394 93.0881 21.394C93.8947 21.394 94.6207 21.196 95.2661 20.8C95.9261 20.404 96.4321 19.854 96.7841 19.15ZM88.8421 15.916H97.2241C96.9747 14.8453 96.4761 14.0167 95.7281 13.43C94.9947 12.8287 94.0854 12.528 93.0001 12.528C92.4721 12.528 91.9807 12.6087 91.5261 12.77C91.0714 12.9167 90.6607 13.144 90.2941 13.452C89.9421 13.7453 89.6414 14.1047 89.3921 14.53C89.1427 14.9407 88.9594 15.4027 88.8421 15.916ZM100.872 23V6.742H102.94V23H100.872ZM104.571 16.994C104.571 16.07 104.732 15.2267 105.055 14.464C105.378 13.6867 105.818 13.0193 106.375 12.462C106.932 11.89 107.592 11.4427 108.355 11.12C109.132 10.7973 109.968 10.636 110.863 10.636C111.875 10.636 112.733 10.812 113.437 11.164C114.156 11.516 114.801 12.088 115.373 12.88V10.922H117.353V23H115.373V21.064C114.742 21.8707 114.09 22.4427 113.415 22.78C112.74 23.1173 111.912 23.286 110.929 23.286C110.02 23.286 109.176 23.132 108.399 22.824C107.622 22.5013 106.947 22.0613 106.375 21.504C105.818 20.9467 105.378 20.2867 105.055 19.524C104.732 18.7467 104.571 17.9033 104.571 16.994ZM106.661 16.972C106.661 17.6027 106.771 18.1893 106.991 18.732C107.226 19.26 107.534 19.722 107.915 20.118C108.311 20.514 108.773 20.8293 109.301 21.064C109.844 21.284 110.43 21.394 111.061 21.394C111.677 21.394 112.242 21.284 112.755 21.064C113.283 20.8293 113.738 20.514 114.119 20.118C114.5 19.722 114.794 19.26 114.999 18.732C115.219 18.1893 115.329 17.5953 115.329 16.95C115.329 16.3047 115.219 15.718 114.999 15.19C114.779 14.6473 114.471 14.178 114.075 13.782C113.694 13.386 113.232 13.078 112.689 12.858C112.161 12.638 111.582 12.528 110.951 12.528C110.35 12.528 109.785 12.6453 109.257 12.88C108.744 13.1 108.289 13.4153 107.893 13.826C107.512 14.222 107.211 14.6913 106.991 15.234C106.771 15.762 106.661 16.3413 106.661 16.972ZM119.487 23V6.742H121.555V12.66C122.098 11.9707 122.728 11.45 123.447 11.098C124.18 10.746 125.016 10.57 125.955 10.57C126.85 10.57 127.678 10.7313 128.441 11.054C129.204 11.3767 129.864 11.824 130.421 12.396C130.993 12.968 131.433 13.6427 131.741 14.42C132.064 15.1973 132.225 16.0333 132.225 16.928C132.225 17.8373 132.071 18.6807 131.763 19.458C131.455 20.2353 131.022 20.91 130.465 21.482C129.908 22.0393 129.248 22.4793 128.485 22.802C127.737 23.1247 126.916 23.286 126.021 23.286C125.053 23.286 124.188 23.1027 123.425 22.736C122.677 22.3693 122.024 21.8267 121.467 21.108V23H119.487ZM125.801 21.394C126.432 21.394 127.011 21.284 127.539 21.064C128.067 20.844 128.522 20.536 128.903 20.14C129.299 19.7293 129.607 19.2527 129.827 18.71C130.047 18.1673 130.157 17.5733 130.157 16.928C130.157 16.2827 130.047 15.6887 129.827 15.146C129.607 14.5887 129.299 14.112 128.903 13.716C128.507 13.32 128.038 13.012 127.495 12.792C126.967 12.572 126.38 12.462 125.735 12.462C125.119 12.462 124.547 12.5793 124.019 12.814C123.491 13.0487 123.036 13.364 122.655 13.76C122.274 14.156 121.973 14.6327 121.753 15.19C121.533 15.7327 121.423 16.3193 121.423 16.95C121.423 17.566 121.533 18.1527 121.753 18.71C121.973 19.2527 122.281 19.722 122.677 20.118C123.073 20.514 123.535 20.8293 124.063 21.064C124.606 21.284 125.185 21.394 125.801 21.394ZM134.58 23V20.206H136.648V23H134.58Z" fill="#105246"/>
<defs>
<clipPath id="clip0_4014_1412">
<rect width="32" height="32" fill="white"/>
</clipPath>
</defs>
</svg>
