<svg width="100" height="32" viewBox="0 0 100 32" fill="none" xmlns="http://www.w3.org/2000/svg">
<g clip-path="url(#clip0_4014_1402)">
<mask id="mask0_4014_1402" style="mask-type:luminance" maskUnits="userSpaceOnUse" x="0" y="0" width="32" height="32">
<path d="M32 0H0V32H32V0Z" fill="white"/>
</mask>
<g mask="url(#mask0_4014_1402)">
<path d="M16.9337 27.1597C18.9999 26.9848 20.9769 26.24 22.6447 25.008L25.7455 28.688C23.3763 30.5077 20.5447 31.6277 17.5718 31.9213C14.5987 32.2149 11.6029 31.6701 8.92351 30.349C6.24409 29.0277 3.98809 26.9827 2.41095 24.4454C0.833801 21.9082 -0.00149547 18.9802 -0.000365065 15.9927C0.000765336 13.0052 0.838276 10.0777 2.41734 7.54168C3.99641 5.00565 6.25396 2.96235 8.93438 1.64315C11.6148 0.32395 14.611 -0.218461 17.5838 0.0773286C20.5566 0.373118 23.3871 1.49529 25.7551 3.3168L22.6527 6.9968C20.986 5.7633 19.0097 5.01669 16.9436 4.84013C14.8777 4.66355 12.8033 5.06397 10.9515 5.99675C9.09964 6.92954 7.54311 8.35808 6.45524 10.1233C5.36735 11.8884 4.79086 13.921 4.78993 15.9945C4.78902 18.068 5.36371 20.101 6.45003 21.8672C7.53633 23.6333 9.09159 25.0632 10.9426 25.9976C12.7936 26.9322 14.8676 27.3344 16.9337 27.1597Z" fill="#105246"/>
<path d="M26.8464 27.7584L23.7456 24.0784H23.7504C24.8427 23.0352 25.7123 21.7813 26.3064 20.3925C26.9003 19.0037 27.2067 17.509 27.2067 15.9984C27.2067 14.4879 26.9003 12.9931 26.3064 11.6043C25.7123 10.2155 24.8427 8.96164 23.7504 7.9184L26.8544 4.2384C28.4779 5.73724 29.7734 7.5561 30.6594 9.5804C31.5451 11.6047 32.0021 13.7905 32.0013 16.0002C32.0006 18.2098 31.5422 20.3954 30.655 22.419C29.7678 24.4427 28.471 26.2606 26.8464 27.7584Z" fill="#105246"/>
</g>
</g>
<path d="M54.6284 18.644H57.0264C56.6451 19.392 56.1977 20.0593 55.6844 20.646C55.1711 21.218 54.5991 21.702 53.9684 22.098C53.3377 22.494 52.6484 22.7947 51.9004 23C51.1671 23.1907 50.3897 23.286 49.5684 23.286C48.3511 23.286 47.2217 23.0733 46.1804 22.648C45.1391 22.208 44.2371 21.614 43.4744 20.866C42.7117 20.118 42.1104 19.2307 41.6704 18.204C41.2304 17.1773 41.0104 16.07 41.0104 14.882C41.0104 13.694 41.2231 12.5867 41.6484 11.56C42.0884 10.5333 42.6824 9.646 43.4304 8.898C44.1784 8.13533 45.0657 7.54133 46.0924 7.116C47.1337 6.676 48.2411 6.456 49.4144 6.456C50.2651 6.456 51.0717 6.566 51.8344 6.786C52.6117 6.99133 53.3231 7.29933 53.9684 7.71C54.6284 8.106 55.2151 8.59 55.7284 9.162C56.2417 9.734 56.6597 10.3867 56.9824 11.12H54.6284C54.0124 10.196 53.2864 9.514 52.4504 9.074C51.6291 8.634 50.6391 8.414 49.4804 8.414C48.5857 8.414 47.7497 8.58267 46.9724 8.92C46.1951 9.24267 45.5204 9.69 44.9484 10.262C44.3911 10.834 43.9437 11.516 43.6064 12.308C43.2837 13.0853 43.1224 13.936 43.1224 14.86C43.1224 15.74 43.2911 16.576 43.6284 17.368C43.9657 18.16 44.4204 18.8493 44.9924 19.436C45.5791 20.008 46.2611 20.47 47.0384 20.822C47.8157 21.1593 48.6444 21.328 49.5244 21.328C50.5657 21.328 51.4824 21.1153 52.2744 20.69C53.0811 20.2647 53.8657 19.5827 54.6284 18.644ZM58.7175 23V10.922H60.7855V23H58.7175ZM58.7175 9.514V6.742H60.7855V9.514H58.7175ZM62.9225 23V10.922H64.9025V12.462C65.0785 12.1393 65.2619 11.868 65.4525 11.648C65.6579 11.428 65.8852 11.2447 66.1345 11.098C66.3985 10.9513 66.6919 10.8413 67.0145 10.768C67.3372 10.6947 67.7112 10.6507 68.1365 10.636V12.638C67.0805 12.7113 66.2885 13.034 65.7605 13.606C65.2472 14.1633 64.9905 14.9847 64.9905 16.07V23H62.9225ZM78.9126 19.304H81.2446C80.5992 20.6387 79.7852 21.636 78.8026 22.296C77.8199 22.956 76.6539 23.286 75.3046 23.286C74.3806 23.286 73.5226 23.1247 72.7306 22.802C71.9386 22.4793 71.2419 22.032 70.6406 21.46C70.0539 20.8733 69.5919 20.1987 69.2546 19.436C68.9172 18.6587 68.7486 17.8227 68.7486 16.928C68.7486 16.048 68.9172 15.2267 69.2546 14.464C69.5919 13.6867 70.0466 13.0193 70.6186 12.462C71.2052 11.89 71.8872 11.4427 72.6646 11.12C73.4566 10.7973 74.2999 10.636 75.1946 10.636C76.5879 10.636 77.8199 10.9953 78.8906 11.714C79.9612 12.4327 80.7386 13.43 81.2226 14.706H78.9126C78.5019 13.9873 77.9812 13.4447 77.3506 13.078C76.7199 12.7113 75.9939 12.528 75.1726 12.528C74.5566 12.528 73.9846 12.6453 73.4566 12.88C72.9286 13.1 72.4666 13.408 72.0706 13.804C71.6892 14.2 71.3886 14.6693 71.1686 15.212C70.9486 15.74 70.8386 16.3193 70.8386 16.95C70.8386 17.5807 70.9486 18.1673 71.1686 18.71C71.4032 19.238 71.7186 19.7073 72.1146 20.118C72.5106 20.514 72.9726 20.8293 73.5006 21.064C74.0432 21.284 74.6226 21.394 75.2386 21.394C76.0306 21.394 76.7052 21.2327 77.2626 20.91C77.8199 20.5873 78.3699 20.052 78.9126 19.304ZM82.8268 23V6.742H84.8948V23H82.8268ZM96.6239 19.15H98.8019C98.5966 19.766 98.2959 20.3307 97.8999 20.844C97.5186 21.3427 97.0712 21.7753 96.5579 22.142C96.0592 22.5087 95.5019 22.7947 94.8859 23C94.2699 23.1907 93.6319 23.286 92.9719 23.286C92.0626 23.286 91.2192 23.1247 90.4419 22.802C89.6646 22.4647 88.9826 22.01 88.3959 21.438C87.8239 20.866 87.3692 20.1987 87.0319 19.436C86.6946 18.6587 86.5259 17.8227 86.5259 16.928C86.5259 16.048 86.6872 15.2267 87.0099 14.464C87.3472 13.7013 87.7946 13.034 88.3519 12.462C88.9239 11.89 89.5912 11.4427 90.3539 11.12C91.1312 10.7973 91.9526 10.636 92.8179 10.636C93.6979 10.636 94.5192 10.8047 95.2819 11.142C96.0592 11.4647 96.7339 11.912 97.3059 12.484C97.8779 13.0413 98.3252 13.7013 98.6479 14.464C98.9852 15.2267 99.1539 16.048 99.1539 16.928C99.1539 17.0747 99.1466 17.214 99.1319 17.346C99.1172 17.4633 99.0952 17.5953 99.0659 17.742H88.6819C88.7259 18.27 88.8652 18.754 89.0999 19.194C89.3492 19.634 89.6572 20.0227 90.0239 20.36C90.4052 20.6827 90.8452 20.9393 91.3439 21.13C91.8426 21.306 92.3706 21.394 92.9279 21.394C93.7346 21.394 94.4606 21.196 95.1059 20.8C95.7659 20.404 96.2719 19.854 96.6239 19.15ZM88.6819 15.916H97.0639C96.8146 14.8453 96.3159 14.0167 95.5679 13.43C94.8346 12.8287 93.9252 12.528 92.8399 12.528C92.3119 12.528 91.8206 12.6087 91.3659 12.77C90.9112 12.9167 90.5006 13.144 90.1339 13.452C89.7819 13.7453 89.4812 14.1047 89.2319 14.53C88.9826 14.9407 88.7992 15.4027 88.6819 15.916Z" fill="#105246"/>
<defs>
<clipPath id="clip0_4014_1402">
<rect width="32" height="32" fill="white"/>
</clipPath>
</defs>
</svg>
