<svg width="150" height="28" viewBox="0 0 150 28" fill="none" xmlns="http://www.w3.org/2000/svg">
<g clip-path="url(#clip0_4014_1445)">
<path d="M24.4186 17.6304C24.4186 13.3148 20.9202 9.81641 16.6046 9.81641H10.093V17.6304H16.6046V27.3978H24.4186V17.6304Z" fill="#105246"/>
<path d="M0.325562 18.2815C0.325562 23.3163 4.40706 27.3978 9.44184 27.3978H14.6511V19.5839H9.44184C8.72257 19.5839 8.13952 19.0008 8.13952 18.2815V17.6304H0.325562V18.2815Z" fill="#105246"/>
<path d="M16.6046 0.0489502C26.3146 0.0489502 34.186 7.9204 34.186 17.6303V27.3978H26.3721V17.6303C26.3721 12.2359 21.9991 7.86291 16.6046 7.86291H9.44184C8.72257 7.86291 8.13951 8.44596 8.13951 9.16523V9.8164H0.325562V9.16523C0.325562 4.13045 4.40706 0.0489502 9.44184 0.0489502H16.6046Z" fill="#105246"/>
</g>
<path d="M44.0416 21V4.742H46.1096V21H44.0416ZM47.7406 14.972C47.7406 14.0627 47.902 13.2193 48.2246 12.442C48.5473 11.6647 48.9946 10.9973 49.5666 10.44C50.1533 9.868 50.8353 9.428 51.6126 9.12C52.4046 8.79733 53.2626 8.636 54.1866 8.636C55.0666 8.636 55.888 8.79733 56.6506 9.12C57.4133 9.44267 58.0733 9.89 58.6306 10.462C59.188 11.034 59.628 11.7087 59.9506 12.486C60.2733 13.2487 60.4346 14.0847 60.4346 14.994C60.4346 15.8887 60.2733 16.7173 59.9506 17.48C59.6426 18.2427 59.21 18.91 58.6526 19.482C58.0953 20.0393 57.4353 20.4793 56.6726 20.802C55.91 21.1247 55.0813 21.286 54.1866 21.286C53.2773 21.286 52.4266 21.1247 51.6346 20.802C50.8573 20.4793 50.1753 20.0393 49.5886 19.482C49.0166 18.91 48.562 18.2427 48.2246 17.48C47.902 16.7027 47.7406 15.8667 47.7406 14.972ZM54.1646 19.394C54.766 19.394 55.3233 19.284 55.8366 19.064C56.35 18.844 56.79 18.5433 57.1566 18.162C57.538 17.766 57.8313 17.2967 58.0366 16.754C58.2566 16.2113 58.3666 15.6247 58.3666 14.994C58.3666 14.3487 58.2566 13.7547 58.0366 13.212C57.8313 12.6547 57.5306 12.178 57.1346 11.782C56.7533 11.386 56.2986 11.078 55.7706 10.858C55.2426 10.638 54.6706 10.528 54.0546 10.528C53.4533 10.528 52.896 10.6453 52.3826 10.88C51.8693 11.1 51.422 11.408 51.0406 11.804C50.674 12.2 50.3806 12.6767 50.1606 13.234C49.9406 13.7767 49.8306 14.356 49.8306 14.972C49.8306 15.6027 49.9406 16.1893 50.1606 16.732C50.3806 17.26 50.6813 17.722 51.0626 18.118C51.4586 18.514 51.9206 18.8293 52.4486 19.064C52.9766 19.284 53.5486 19.394 54.1646 19.394ZM61.9662 21.572H64.1222C64.6502 22.4227 65.2149 23.024 65.8162 23.376C66.4175 23.7427 67.1729 23.926 68.0822 23.926C69.4315 23.926 70.4509 23.552 71.1402 22.804C71.8295 22.056 72.1742 20.956 72.1742 19.504V18.844C71.6609 19.6947 71.0522 20.318 70.3482 20.714C69.6442 21.0953 68.7862 21.286 67.7742 21.286C66.8942 21.286 66.0802 21.1247 65.3322 20.802C64.5842 20.4793 63.9315 20.0393 63.3742 19.482C62.8169 18.91 62.3769 18.2427 62.0542 17.48C61.7462 16.7027 61.5922 15.8667 61.5922 14.972C61.5922 14.0627 61.7462 13.2193 62.0542 12.442C62.3622 11.6647 62.7875 10.9973 63.3302 10.44C63.8729 9.868 64.5182 9.428 65.2662 9.12C66.0142 8.79733 66.8209 8.636 67.6862 8.636C68.6689 8.636 69.5195 8.81933 70.2382 9.186C70.9715 9.538 71.6169 10.0953 72.1742 10.858V8.922H74.1982V18.8C74.1982 21.1467 73.6922 22.892 72.6802 24.036C71.6682 25.1947 70.1355 25.774 68.0822 25.774C66.5715 25.774 65.2882 25.4147 64.2322 24.696C63.1762 23.9773 62.4209 22.936 61.9662 21.572ZM67.9062 19.394C68.5222 19.394 69.0869 19.284 69.6002 19.064C70.1135 18.8293 70.5535 18.514 70.9202 18.118C71.3015 17.722 71.5949 17.2453 71.8002 16.688C72.0202 16.1307 72.1302 15.5293 72.1302 14.884C72.1302 14.2387 72.0202 13.652 71.8002 13.124C71.5802 12.596 71.2795 12.1413 70.8982 11.76C70.5169 11.364 70.0549 11.0633 69.5122 10.858C68.9842 10.638 68.4049 10.528 67.7742 10.528C67.1875 10.528 66.6449 10.638 66.1462 10.858C65.6475 11.078 65.2149 11.386 64.8482 11.782C64.4815 12.1633 64.1955 12.6253 63.9902 13.168C63.7849 13.696 63.6822 14.2827 63.6822 14.928C63.6822 15.5733 63.7849 16.1747 63.9902 16.732C64.2102 17.2747 64.5035 17.744 64.8702 18.14C65.2515 18.536 65.6989 18.844 66.2122 19.064C66.7255 19.284 67.2902 19.394 67.9062 19.394ZM75.8305 14.972C75.8305 14.0627 75.9918 13.2193 76.3145 12.442C76.6371 11.6647 77.0845 10.9973 77.6565 10.44C78.2431 9.868 78.9251 9.428 79.7025 9.12C80.4945 8.79733 81.3525 8.636 82.2765 8.636C83.1565 8.636 83.9778 8.79733 84.7405 9.12C85.5031 9.44267 86.1631 9.89 86.7205 10.462C87.2778 11.034 87.7178 11.7087 88.0405 12.486C88.3631 13.2487 88.5245 14.0847 88.5245 14.994C88.5245 15.8887 88.3631 16.7173 88.0405 17.48C87.7325 18.2427 87.2998 18.91 86.7425 19.482C86.1851 20.0393 85.5251 20.4793 84.7625 20.802C83.9998 21.1247 83.1711 21.286 82.2765 21.286C81.3671 21.286 80.5165 21.1247 79.7245 20.802C78.9471 20.4793 78.2651 20.0393 77.6785 19.482C77.1065 18.91 76.6518 18.2427 76.3145 17.48C75.9918 16.7027 75.8305 15.8667 75.8305 14.972ZM82.2545 19.394C82.8558 19.394 83.4131 19.284 83.9265 19.064C84.4398 18.844 84.8798 18.5433 85.2465 18.162C85.6278 17.766 85.9211 17.2967 86.1265 16.754C86.3465 16.2113 86.4565 15.6247 86.4565 14.994C86.4565 14.3487 86.3465 13.7547 86.1265 13.212C85.9211 12.6547 85.6205 12.178 85.2245 11.782C84.8431 11.386 84.3885 11.078 83.8605 10.858C83.3325 10.638 82.7605 10.528 82.1445 10.528C81.5431 10.528 80.9858 10.6453 80.4725 10.88C79.9591 11.1 79.5118 11.408 79.1305 11.804C78.7638 12.2 78.4705 12.6767 78.2505 13.234C78.0305 13.7767 77.9205 14.356 77.9205 14.972C77.9205 15.6027 78.0305 16.1893 78.2505 16.732C78.4705 17.26 78.7711 17.722 79.1525 18.118C79.5485 18.514 80.0105 18.8293 80.5385 19.064C81.0665 19.284 81.6385 19.394 82.2545 19.394ZM90.188 21V8.922H92.256V21H90.188ZM90.188 7.514V4.742H92.256V7.514H90.188ZM94.3931 25.18V8.922H96.3731V10.77C96.8718 10.066 97.5025 9.538 98.2651 9.186C99.0278 8.81933 99.8931 8.636 100.861 8.636C101.756 8.636 102.584 8.79733 103.347 9.12C104.11 9.428 104.77 9.868 105.327 10.44C105.884 10.9973 106.317 11.6647 106.625 12.442C106.948 13.2047 107.109 14.0407 107.109 14.95C107.109 15.8593 106.948 16.7027 106.625 17.48C106.302 18.2427 105.855 18.91 105.283 19.482C104.726 20.0393 104.066 20.4793 103.303 20.802C102.54 21.1247 101.712 21.286 100.817 21.286C99.8931 21.286 99.0718 21.1173 98.3531 20.78C97.6345 20.4427 97.0038 19.9293 96.4611 19.24V25.18H94.3931ZM100.707 19.394C101.308 19.394 101.873 19.284 102.401 19.064C102.929 18.8293 103.384 18.5213 103.765 18.14C104.161 17.744 104.469 17.282 104.689 16.754C104.909 16.2113 105.019 15.6247 105.019 14.994C105.019 14.3487 104.909 13.7547 104.689 13.212C104.469 12.6547 104.161 12.178 103.765 11.782C103.384 11.386 102.922 11.078 102.379 10.858C101.851 10.638 101.264 10.528 100.619 10.528C100.018 10.528 99.4531 10.6453 98.9251 10.88C98.4118 11.1 97.9571 11.4153 97.5611 11.826C97.1798 12.222 96.8791 12.6913 96.6591 13.234C96.4391 13.7767 96.3291 14.356 96.3291 14.972C96.3291 15.6027 96.4391 16.1893 96.6591 16.732C96.8791 17.26 97.1871 17.7293 97.5831 18.14C97.9791 18.536 98.4411 18.844 98.9691 19.064C99.4971 19.284 100.076 19.394 100.707 19.394ZM107.793 17.348H109.839C109.927 18.0227 110.139 18.536 110.477 18.888C110.829 19.2253 111.305 19.394 111.907 19.394C112.42 19.394 112.845 19.2327 113.183 18.91C113.52 18.5727 113.689 18.14 113.689 17.612C113.689 17.3333 113.637 17.0987 113.535 16.908C113.447 16.7027 113.307 16.5267 113.117 16.38C112.941 16.2333 112.713 16.094 112.435 15.962C112.156 15.8153 111.826 15.676 111.445 15.544C110.843 15.324 110.337 15.104 109.927 14.884C109.531 14.6493 109.208 14.4 108.959 14.136C108.709 13.8573 108.526 13.5567 108.409 13.234C108.291 12.9113 108.233 12.5447 108.233 12.134C108.233 11.6207 108.321 11.1513 108.497 10.726C108.673 10.3007 108.922 9.934 109.245 9.626C109.567 9.30333 109.949 9.06133 110.389 8.9C110.829 8.724 111.32 8.636 111.863 8.636C112.376 8.636 112.845 8.71667 113.271 8.878C113.711 9.03933 114.085 9.274 114.393 9.582C114.701 9.87533 114.95 10.2273 115.141 10.638C115.331 11.0487 115.434 11.5107 115.449 12.024H113.403C113.344 11.5253 113.183 11.1513 112.919 10.902C112.655 10.6527 112.295 10.528 111.841 10.528C111.386 10.528 111.012 10.66 110.719 10.924C110.44 11.1733 110.301 11.5033 110.301 11.914C110.301 12.1633 110.359 12.3907 110.477 12.596C110.609 12.7867 110.785 12.97 111.005 13.146C111.225 13.3073 111.481 13.4613 111.775 13.608C112.083 13.74 112.413 13.8647 112.765 13.982C113.777 14.3193 114.525 14.774 115.009 15.346C115.507 15.918 115.757 16.6073 115.757 17.414C115.757 17.9713 115.661 18.492 115.471 18.976C115.28 19.4453 115.009 19.856 114.657 20.208C114.305 20.5453 113.894 20.8093 113.425 21C112.955 21.1907 112.435 21.286 111.863 21.286C110.645 21.286 109.677 20.934 108.959 20.23C108.24 19.526 107.851 18.5653 107.793 17.348ZM125.845 21V19.372C125.376 20.0467 124.848 20.538 124.261 20.846C123.689 21.1393 122.963 21.286 122.083 21.286C120.455 21.286 119.223 20.7947 118.387 19.812C117.551 18.8293 117.133 17.3627 117.133 15.412V8.922H119.201V15.236C119.201 16.6587 119.458 17.7073 119.971 18.382C120.484 19.0567 121.284 19.394 122.369 19.394C123.498 19.394 124.342 19.0273 124.899 18.294C125.471 17.546 125.757 16.4313 125.757 14.95V8.922H127.825V21H125.845ZM129.975 21V8.922H131.955V10.22C132.424 9.63333 132.908 9.22267 133.407 8.988C133.906 8.75333 134.529 8.636 135.277 8.636C136.172 8.636 136.912 8.80467 137.499 9.142C138.1 9.47933 138.628 10.0293 139.083 10.792C139.582 10.044 140.154 9.50133 140.799 9.164C141.459 8.812 142.244 8.636 143.153 8.636C144.708 8.636 145.896 9.09067 146.717 10C147.553 10.8947 147.971 12.1927 147.971 13.894V21H145.925V14.114C145.925 12.926 145.676 12.0313 145.177 11.43C144.693 10.8287 143.974 10.528 143.021 10.528C142.024 10.528 141.268 10.8507 140.755 11.496C140.256 12.1267 140.007 13.08 140.007 14.356V21H137.939V14.092C137.939 12.9187 137.69 12.0313 137.191 11.43C136.692 10.8287 135.959 10.528 134.991 10.528C134.023 10.528 133.29 10.8507 132.791 11.496C132.292 12.1267 132.043 13.0653 132.043 14.312V21H129.975Z" fill="#105246"/>
<defs>
<clipPath id="clip0_4014_1445">
<rect width="34.5116" height="28" fill="white"/>
</clipPath>
</defs>
</svg>
