<svg width="120" height="52" viewBox="0 0 120 52" fill="none" xmlns="http://www.w3.org/2000/svg">
<rect width="119.333" height="52" rx="12" fill="white"/>
<path d="M21.9607 34.5502H39.0607V17.4502H21.9607V34.5502ZM35.7694 24.3549H32.156V20.7415H35.7694V24.3549ZM25.2514 20.7415H28.8667V27.6455H35.7694V31.2589H25.2514V20.7415ZM50.196 17.4502C48.505 17.4502 46.8519 17.9516 45.4459 18.8911C44.0398 19.8306 42.944 21.1659 42.2968 22.7283C41.6497 24.2906 41.4804 26.0097 41.8103 27.6682C42.1402 29.3267 42.9545 30.8502 44.1502 32.0459C45.346 33.2417 46.8694 34.056 48.528 34.3859C50.1866 34.7158 51.9056 34.5465 53.468 33.8994C55.0303 33.2523 56.3656 32.1564 57.3051 30.7503C58.2446 29.3443 58.746 27.6912 58.746 26.0002C58.7434 23.7334 57.8417 21.5602 56.2388 19.9574C54.636 18.3545 52.4628 17.4528 50.196 17.4502ZM50.196 31.2589C49.156 31.2589 48.1392 30.9505 47.2744 30.3726C46.4097 29.7948 45.7356 28.9735 45.3376 28.0126C44.9396 27.0517 44.8355 25.9944 45.0384 24.9743C45.2413 23.9542 45.7422 23.0172 46.4776 22.2818C47.213 21.5463 48.15 21.0455 49.1701 20.8426C50.1902 20.6397 51.2475 20.7438 52.2084 21.1418C53.1693 21.5398 53.9906 22.2139 54.5684 23.0787C55.1463 23.9434 55.4547 24.9601 55.4547 26.0002C55.4526 27.3943 54.8978 28.7306 53.9121 29.7163C52.9264 30.7021 51.59 31.2567 50.196 31.2589ZM89.342 17.4502C87.6507 17.4501 85.9978 17.9514 84.5917 18.8908C83.1856 19.8302 82.0896 21.1655 81.4424 22.7278C80.7952 24.2901 80.6257 26.0093 80.9556 27.6678C81.2854 29.3264 82.0996 30.8499 83.2954 32.0457C84.491 33.2415 86.0145 34.0559 87.6734 34.3859C89.3314 34.7158 91.0507 34.5465 92.6134 33.8995C94.1754 33.2523 95.5107 32.1565 96.45 30.7504C97.39 29.3443 97.8914 27.6913 97.8914 26.0002C97.8887 23.7335 96.9874 21.5604 95.3847 19.9576C93.782 18.3547 91.6087 17.453 89.342 17.4502ZM89.342 31.2589C88.302 31.259 87.2854 30.9507 86.4203 30.3729C85.5554 29.7952 84.8813 28.9739 84.4832 28.0131C84.085 27.0522 83.9808 25.9948 84.1836 24.9747C84.3865 23.9546 84.8873 23.0175 85.6227 22.282C86.3581 21.5465 87.2954 21.0456 88.3154 20.8426C89.3354 20.6397 90.3927 20.7438 91.3534 21.1418C92.3147 21.5398 93.136 22.2138 93.714 23.0786C94.2914 23.9434 94.6 24.9601 94.6 26.0002C94.598 27.3941 94.0434 28.7303 93.0574 29.7161C92.072 30.7018 90.736 31.2566 89.342 31.2589ZM69.7687 17.4502C68.0776 17.4502 66.4246 17.9516 65.0186 18.8911C63.6125 19.8306 62.5166 21.1659 61.8695 22.7283C61.2224 24.2906 61.0531 26.0097 61.383 27.6682C61.7129 29.3267 62.5272 30.8502 63.7229 32.0459C64.9186 33.2417 66.4421 34.056 68.1006 34.3859C69.7592 34.7158 71.4783 34.5465 73.0406 33.8994C74.603 33.2523 75.9382 32.1564 76.8778 30.7503C77.8172 29.3443 78.3187 27.6912 78.3187 26.0002C78.316 23.7334 77.4144 21.5602 75.8115 19.9574C74.2086 18.3545 72.0355 17.4528 69.7687 17.4502ZM69.7687 31.2589C68.7996 31.2593 67.8494 30.9921 67.0226 30.4865C66.196 29.981 65.525 29.2569 65.0838 28.3941C64.6428 27.5313 64.4486 26.5634 64.5228 25.5973C64.5971 24.6311 64.9368 23.7042 65.5046 22.9189C66.0724 22.1337 66.8462 21.5206 67.7404 21.1473C68.6346 20.7741 69.6146 20.6551 70.5722 20.8037C71.5298 20.9522 72.4276 21.3625 73.1668 21.9891C73.9059 22.6158 74.4575 23.4345 74.7607 24.3549H69.7687V27.6455H74.7607C74.4134 28.6957 73.7444 29.61 72.8483 30.2585C71.9523 30.9071 70.8748 31.2571 69.7687 31.2589Z" fill="#105246"/>
</svg>
