<svg width="179" height="64" viewBox="0 0 179 64" fill="none" xmlns="http://www.w3.org/2000/svg">
<rect width="179" height="64" rx="12" fill="white"/>
<g clip-path="url(#clip0_4033_1429)">
<path d="M32.16 30.4001C33.2204 30.4001 34.08 29.5404 34.08 28.4801C34.08 27.4197 33.2204 26.5601 32.16 26.5601C31.0996 26.5601 30.24 27.4197 30.24 28.4801C30.24 29.5404 31.0996 30.4001 32.16 30.4001Z" fill="#105246"/>
<path d="M31.84 41.5998C32.9004 41.5998 33.76 40.7401 33.76 39.6798C33.76 38.6194 32.9004 37.7598 31.84 37.7598C30.7797 37.7598 29.92 38.6194 29.92 39.6798C29.92 40.7401 30.7797 41.5998 31.84 41.5998Z" fill="#105246"/>
<path d="M30.24 25.28C30.5934 25.28 30.88 24.9935 30.88 24.64C30.88 24.2865 30.5934 24 30.24 24C29.8865 24 29.6 24.2865 29.6 24.64C29.6 24.9935 29.8865 25.28 30.24 25.28Z" fill="#105246"/>
<path d="M29.44 34.2398C29.7051 34.2398 29.92 34.0249 29.92 33.7598C29.92 33.4947 29.7051 33.2798 29.44 33.2798C29.1749 33.2798 28.96 33.4947 28.96 33.7598C28.96 34.0249 29.1749 34.2398 29.44 34.2398Z" fill="#105246"/>
<path d="M41.76 34.7198C42.0251 34.7198 42.24 34.5049 42.24 34.2398C42.24 33.9746 42.0251 33.7598 41.76 33.7598C41.4949 33.7598 41.28 33.9746 41.28 34.2398C41.28 34.5049 41.4949 34.7198 41.76 34.7198Z" fill="#105246"/>
<path d="M37.12 41.92C37.3851 41.92 37.6 41.7051 37.6 41.44C37.6 41.1748 37.3851 40.96 37.12 40.96C36.8549 40.96 36.64 41.1748 36.64 41.44C36.64 41.7051 36.8549 41.92 37.12 41.92Z" fill="#105246"/>
<path d="M36 32.0002C36.3534 32.0002 36.64 31.7137 36.64 31.3602C36.64 31.0068 36.3534 30.7202 36 30.7202C35.6465 30.7202 35.36 31.0068 35.36 31.3602C35.36 31.7137 35.6465 32.0002 36 32.0002Z" fill="#105246"/>
<path d="M33.6 35.5198C34.2185 35.5198 34.72 35.0183 34.72 34.3998C34.72 33.7812 34.2185 33.2798 33.6 33.2798C32.9814 33.2798 32.48 33.7812 32.48 34.3998C32.48 35.0183 32.9814 35.5198 33.6 35.5198Z" fill="#105246"/>
<path d="M40.48 24.6402C41.0103 24.6402 41.44 24.2104 41.44 23.6802C41.44 23.15 41.0103 22.7202 40.48 22.7202C39.9498 22.7202 39.52 23.15 39.52 23.6802C39.52 24.2104 39.9498 24.6402 40.48 24.6402Z" fill="#105246"/>
<path d="M40.0799 31.8401C41.538 31.8401 42.7199 30.6581 42.7199 29.2001C42.7199 27.742 41.538 26.5601 40.0799 26.5601C38.6219 26.5601 37.4399 27.742 37.4399 29.2001C37.4399 30.6581 38.6219 31.8401 40.0799 31.8401Z" fill="#105246"/>
<path d="M35.52 25.92C36.3153 25.92 36.96 25.2753 36.96 24.48C36.96 23.6847 36.3153 23.04 35.52 23.04C34.7247 23.04 34.08 23.6847 34.08 24.48C34.08 25.2753 34.7247 25.92 35.52 25.92Z" fill="#105246"/>
<path d="M39.04 39.6799C40.3655 39.6799 41.44 38.6053 41.44 37.2799C41.44 35.9544 40.3655 34.8799 39.04 34.8799C37.7146 34.8799 36.64 35.9544 36.64 37.2799C36.64 38.6053 37.7146 39.6799 39.04 39.6799Z" fill="#105246"/>
<path d="M25.3216 45.5999C24.7371 45.613 24.1538 45.5402 23.5904 45.3839C23.189 45.2706 22.8265 45.0492 22.5424 44.7439C22.2418 44.3972 22.0284 43.9834 21.92 43.5375C21.762 42.8861 21.6889 42.2172 21.7024 41.5471V36.2671C21.7024 35.2847 21.5504 34.5695 21.2384 34.0831C20.9436 33.6469 20.5055 33.3277 20 33.1807V30.5135C20.8528 30.2271 21.7072 29.4975 21.7072 27.7279V22.4479C21.7072 20.9471 21.984 19.8879 22.528 19.2815C23.072 18.6751 24.0304 18.3999 25.4048 18.3999H27.2V21.0335H27.1392C26.7846 21.0295 26.4302 21.0498 26.0784 21.0943C25.7602 21.1292 25.4607 21.2616 25.2208 21.4735C24.9961 21.6987 24.8487 21.9895 24.8 22.3039C24.7416 22.6479 24.7153 22.9966 24.7216 23.3455V28.0079C24.7263 28.4738 24.699 28.9394 24.64 29.4015C24.6019 29.6985 24.5194 29.9882 24.3952 30.2607C24.2802 30.5018 24.1206 30.719 23.9248 30.9007C23.6505 31.1523 23.3597 31.3854 23.0544 31.5983L22.4576 32.0207L23.0672 32.4239C23.3662 32.6145 23.6426 32.8383 23.8912 33.0911C24.0908 33.3007 24.256 33.5404 24.3808 33.8015C24.512 34.0842 24.5994 34.3853 24.64 34.6943C24.6964 35.1271 24.7232 35.5634 24.72 35.9999V40.6623C24.7144 41.0021 24.7406 41.3418 24.7984 41.6767C24.845 41.9826 24.9834 42.2671 25.1952 42.4927C25.4214 42.7085 25.7085 42.8492 26.0176 42.8959C26.3793 42.9548 26.7456 42.981 27.112 42.9743H27.2V45.5999H25.3216Z" fill="#105246"/>
<path d="M46.6784 45.5998C47.2629 45.6129 47.8463 45.5401 48.4096 45.3838C48.8111 45.2705 49.1736 45.0491 49.4576 44.7438C49.756 44.3974 49.9677 43.9851 50.0752 43.5406C50.2332 42.8893 50.3064 42.2203 50.2928 41.5502V36.2702C50.2928 35.2878 50.4448 34.5726 50.7568 34.0862C51.052 33.6473 51.492 33.3262 52 33.179V30.5134C51.1472 30.227 50.2928 29.4974 50.2928 27.7278V22.4478C50.2928 20.947 50.016 19.8878 49.472 19.2814C48.928 18.675 47.9696 18.395 46.592 18.395H44.8V21.0334H44.8608C45.2154 21.0294 45.5698 21.0497 45.9216 21.0942C46.2397 21.1291 46.5394 21.2615 46.7792 21.4734C47.004 21.6986 47.1514 21.9894 47.2 22.3038C47.2584 22.6478 47.2847 22.9965 47.2784 23.3454V28.0078C47.2722 28.4736 47.2978 28.9392 47.3552 29.4014C47.3933 29.6985 47.4759 29.9881 47.6 30.2606C47.7151 30.5017 47.8746 30.7189 48.0704 30.9006C48.3447 31.1523 48.6356 31.3853 48.9408 31.5982L49.5376 32.0206L48.928 32.4238C48.629 32.6144 48.3527 32.8382 48.104 33.091C47.9045 33.3006 47.7392 33.5403 47.6144 33.8014C47.4826 34.0861 47.3952 34.3894 47.3552 34.7006C47.3002 35.1309 47.2746 35.5645 47.2784 35.9982V40.6606C47.284 41.0005 47.2578 41.3401 47.2 41.675C47.1618 41.9851 47.021 42.2734 46.8 42.4942C46.5792 42.7152 46.2909 42.856 45.9808 42.8942C45.6191 42.9531 45.2528 42.9793 44.8864 42.9726H44.8V45.5998H46.6784Z" fill="#105246"/>
</g>
<path d="M74.8413 34.644H77.2393C76.858 35.392 76.4106 36.0593 75.8973 36.646C75.384 37.218 74.812 37.702 74.1813 38.098C73.5506 38.494 72.8613 38.7947 72.1133 39C71.38 39.1907 70.6026 39.286 69.7813 39.286C68.564 39.286 67.4346 39.0733 66.3933 38.648C65.352 38.208 64.45 37.614 63.6873 36.866C62.9246 36.118 62.3233 35.2307 61.8833 34.204C61.4433 33.1773 61.2233 32.07 61.2233 30.882C61.2233 29.694 61.436 28.5867 61.8613 27.56C62.3013 26.5333 62.8953 25.646 63.6433 24.898C64.3913 24.1353 65.2786 23.5413 66.3053 23.116C67.3466 22.676 68.454 22.456 69.6273 22.456C70.478 22.456 71.2846 22.566 72.0473 22.786C72.8246 22.9913 73.536 23.2993 74.1813 23.71C74.8413 24.106 75.428 24.59 75.9413 25.162C76.4546 25.734 76.8726 26.3867 77.1953 27.12H74.8413C74.2253 26.196 73.4993 25.514 72.6633 25.074C71.842 24.634 70.852 24.414 69.6933 24.414C68.7986 24.414 67.9626 24.5827 67.1853 24.92C66.408 25.2427 65.7333 25.69 65.1613 26.262C64.604 26.834 64.1566 27.516 63.8193 28.308C63.4966 29.0853 63.3353 29.936 63.3353 30.86C63.3353 31.74 63.504 32.576 63.8413 33.368C64.1786 34.16 64.6333 34.8493 65.2053 35.436C65.792 36.008 66.474 36.47 67.2513 36.822C68.0286 37.1593 68.8573 37.328 69.7373 37.328C70.7786 37.328 71.6953 37.1153 72.4873 36.69C73.294 36.2647 74.0786 35.5827 74.8413 34.644ZM78.4244 32.972C78.4244 32.0627 78.5857 31.2193 78.9084 30.442C79.231 29.6647 79.6784 28.9973 80.2504 28.44C80.837 27.868 81.519 27.428 82.2964 27.12C83.0884 26.7973 83.9464 26.636 84.8704 26.636C85.7504 26.636 86.5717 26.7973 87.3344 27.12C88.097 27.4427 88.757 27.89 89.3144 28.462C89.8717 29.034 90.3117 29.7087 90.6344 30.486C90.957 31.2487 91.1184 32.0847 91.1184 32.994C91.1184 33.8887 90.957 34.7173 90.6344 35.48C90.3264 36.2427 89.8937 36.91 89.3364 37.482C88.779 38.0393 88.119 38.4793 87.3564 38.802C86.5937 39.1247 85.765 39.286 84.8704 39.286C83.961 39.286 83.1104 39.1247 82.3184 38.802C81.541 38.4793 80.859 38.0393 80.2724 37.482C79.7004 36.91 79.2457 36.2427 78.9084 35.48C78.5857 34.7027 78.4244 33.8667 78.4244 32.972ZM84.8484 37.394C85.4497 37.394 86.007 37.284 86.5204 37.064C87.0337 36.844 87.4737 36.5433 87.8404 36.162C88.2217 35.766 88.515 35.2967 88.7204 34.754C88.9404 34.2113 89.0504 33.6247 89.0504 32.994C89.0504 32.3487 88.9404 31.7547 88.7204 31.212C88.515 30.6547 88.2144 30.178 87.8184 29.782C87.437 29.386 86.9824 29.078 86.4544 28.858C85.9264 28.638 85.3544 28.528 84.7384 28.528C84.137 28.528 83.5797 28.6453 83.0664 28.88C82.553 29.1 82.1057 29.408 81.7244 29.804C81.3577 30.2 81.0644 30.6767 80.8444 31.234C80.6244 31.7767 80.5144 32.356 80.5144 32.972C80.5144 33.6027 80.6244 34.1893 80.8444 34.732C81.0644 35.26 81.365 35.722 81.7464 36.118C82.1424 36.514 82.6044 36.8293 83.1324 37.064C83.6604 37.284 84.2324 37.394 84.8484 37.394ZM92.2759 32.972C92.2759 32.0627 92.4372 31.2193 92.7599 30.442C93.0826 29.6647 93.5226 28.99 94.0799 28.418C94.6519 27.846 95.3192 27.3987 96.0819 27.076C96.8592 26.7387 97.6952 26.57 98.5899 26.57C99.4699 26.57 100.284 26.7387 101.032 27.076C101.795 27.4133 102.455 27.9047 103.012 28.55V22.742H105.058V39H103.078V37.02C102.462 37.8267 101.817 38.406 101.142 38.758C100.467 39.11 99.6532 39.286 98.6999 39.286C97.7906 39.286 96.9399 39.1247 96.1479 38.802C95.3706 38.4793 94.6959 38.0393 94.1239 37.482C93.5519 36.91 93.0972 36.2427 92.7599 35.48C92.4372 34.7027 92.2759 33.8667 92.2759 32.972ZM94.3659 32.906C94.3659 33.5367 94.4759 34.1233 94.6959 34.666C94.9306 35.2087 95.2459 35.6853 95.6419 36.096C96.0526 36.492 96.5219 36.8073 97.0499 37.042C97.5926 37.2767 98.1792 37.394 98.8099 37.394C99.4112 37.394 99.9686 37.2767 100.482 37.042C101.01 36.8073 101.465 36.492 101.846 36.096C102.242 35.6853 102.55 35.2087 102.77 34.666C103.005 34.1233 103.122 33.544 103.122 32.928C103.122 32.2973 103.005 31.7107 102.77 31.168C102.535 30.6253 102.22 30.156 101.824 29.76C101.428 29.364 100.951 29.0487 100.394 28.814C99.8512 28.5793 99.2646 28.462 98.6339 28.462C98.0326 28.462 97.4752 28.5793 96.9619 28.814C96.4486 29.0487 95.9939 29.364 95.5979 29.76C95.2166 30.156 94.9159 30.6253 94.6959 31.168C94.4759 31.7107 94.3659 32.29 94.3659 32.906ZM116.784 35.15H118.962C118.757 35.766 118.456 36.3307 118.06 36.844C117.679 37.3427 117.231 37.7753 116.718 38.142C116.219 38.5087 115.662 38.7947 115.046 39C114.43 39.1907 113.792 39.286 113.132 39.286C112.223 39.286 111.379 39.1247 110.602 38.802C109.825 38.4647 109.143 38.01 108.556 37.438C107.984 36.866 107.529 36.1987 107.192 35.436C106.855 34.6587 106.686 33.8227 106.686 32.928C106.686 32.048 106.847 31.2267 107.17 30.464C107.507 29.7013 107.955 29.034 108.512 28.462C109.084 27.89 109.751 27.4427 110.514 27.12C111.291 26.7973 112.113 26.636 112.978 26.636C113.858 26.636 114.679 26.8047 115.442 27.142C116.219 27.4647 116.894 27.912 117.466 28.484C118.038 29.0413 118.485 29.7013 118.808 30.464C119.145 31.2267 119.314 32.048 119.314 32.928C119.314 33.0747 119.307 33.214 119.292 33.346C119.277 33.4633 119.255 33.5953 119.226 33.742H108.842C108.886 34.27 109.025 34.754 109.26 35.194C109.509 35.634 109.817 36.0227 110.184 36.36C110.565 36.6827 111.005 36.9393 111.504 37.13C112.003 37.306 112.531 37.394 113.088 37.394C113.895 37.394 114.621 37.196 115.266 36.8C115.926 36.404 116.432 35.854 116.784 35.15ZM108.842 31.916H117.224C116.975 30.8453 116.476 30.0167 115.728 29.43C114.995 28.8287 114.085 28.528 113 28.528C112.472 28.528 111.981 28.6087 111.526 28.77C111.071 28.9167 110.661 29.144 110.294 29.452C109.942 29.7453 109.641 30.1047 109.392 30.53C109.143 30.9407 108.959 31.4027 108.842 31.916ZM120.872 39V22.742H122.94V39H120.872ZM124.571 32.994C124.571 32.07 124.732 31.2267 125.055 30.464C125.378 29.6867 125.818 29.0193 126.375 28.462C126.932 27.89 127.592 27.4427 128.355 27.12C129.132 26.7973 129.968 26.636 130.863 26.636C131.875 26.636 132.733 26.812 133.437 27.164C134.156 27.516 134.801 28.088 135.373 28.88V26.922H137.353V39H135.373V37.064C134.742 37.8707 134.09 38.4427 133.415 38.78C132.74 39.1173 131.912 39.286 130.929 39.286C130.02 39.286 129.176 39.132 128.399 38.824C127.622 38.5013 126.947 38.0613 126.375 37.504C125.818 36.9467 125.378 36.2867 125.055 35.524C124.732 34.7467 124.571 33.9033 124.571 32.994ZM126.661 32.972C126.661 33.6027 126.771 34.1893 126.991 34.732C127.226 35.26 127.534 35.722 127.915 36.118C128.311 36.514 128.773 36.8293 129.301 37.064C129.844 37.284 130.43 37.394 131.061 37.394C131.677 37.394 132.242 37.284 132.755 37.064C133.283 36.8293 133.738 36.514 134.119 36.118C134.5 35.722 134.794 35.26 134.999 34.732C135.219 34.1893 135.329 33.5953 135.329 32.95C135.329 32.3047 135.219 31.718 134.999 31.19C134.779 30.6473 134.471 30.178 134.075 29.782C133.694 29.386 133.232 29.078 132.689 28.858C132.161 28.638 131.582 28.528 130.951 28.528C130.35 28.528 129.785 28.6453 129.257 28.88C128.744 29.1 128.289 29.4153 127.893 29.826C127.512 30.222 127.211 30.6913 126.991 31.234C126.771 31.762 126.661 32.3413 126.661 32.972ZM139.487 39V22.742H141.555V28.66C142.098 27.9707 142.728 27.45 143.447 27.098C144.18 26.746 145.016 26.57 145.955 26.57C146.85 26.57 147.678 26.7313 148.441 27.054C149.204 27.3767 149.864 27.824 150.421 28.396C150.993 28.968 151.433 29.6427 151.741 30.42C152.064 31.1973 152.225 32.0333 152.225 32.928C152.225 33.8373 152.071 34.6807 151.763 35.458C151.455 36.2353 151.022 36.91 150.465 37.482C149.908 38.0393 149.248 38.4793 148.485 38.802C147.737 39.1247 146.916 39.286 146.021 39.286C145.053 39.286 144.188 39.1027 143.425 38.736C142.677 38.3693 142.024 37.8267 141.467 37.108V39H139.487ZM145.801 37.394C146.432 37.394 147.011 37.284 147.539 37.064C148.067 36.844 148.522 36.536 148.903 36.14C149.299 35.7293 149.607 35.2527 149.827 34.71C150.047 34.1673 150.157 33.5733 150.157 32.928C150.157 32.2827 150.047 31.6887 149.827 31.146C149.607 30.5887 149.299 30.112 148.903 29.716C148.507 29.32 148.038 29.012 147.495 28.792C146.967 28.572 146.38 28.462 145.735 28.462C145.119 28.462 144.547 28.5793 144.019 28.814C143.491 29.0487 143.036 29.364 142.655 29.76C142.274 30.156 141.973 30.6327 141.753 31.19C141.533 31.7327 141.423 32.3193 141.423 32.95C141.423 33.566 141.533 34.1527 141.753 34.71C141.973 35.2527 142.281 35.722 142.677 36.118C143.073 36.514 143.535 36.8293 144.063 37.064C144.606 37.284 145.185 37.394 145.801 37.394ZM154.58 39V36.206H156.648V39H154.58Z" fill="#105246"/>
<defs>
<clipPath id="clip0_4033_1429">
<rect width="32" height="32" fill="white" transform="translate(20 16)"/>
</clipPath>
</defs>
</svg>
