<svg width="119" height="72" viewBox="0 0 119 72" fill="none" xmlns="http://www.w3.org/2000/svg">
<rect width="118.431" height="72" rx="12" fill="white"/>
<path d="M22.0276 39.1504H24.2495V50.0451H22.0276V39.1504Z" fill="#105246"/>
<path d="M25.5381 46.312C25.5367 45.5295 25.7674 44.7641 26.2011 44.1127C26.6348 43.4613 27.2519 42.9533 27.9745 42.6528C28.697 42.3523 29.4924 42.2729 30.2601 42.4247C31.0278 42.5765 31.7332 42.9525 32.287 43.5054C32.8409 44.0582 33.2183 44.7629 33.3715 45.5303C33.5248 46.2976 33.4469 47.0933 33.1477 47.8164C32.8486 48.5395 32.3417 49.1576 31.6911 49.5925C31.0406 50.0275 30.2757 50.2595 29.4931 50.2595C28.9727 50.2655 28.4564 50.1675 27.9743 49.9713C27.4923 49.7751 27.0543 49.4847 26.6859 49.117C26.3176 48.7494 26.0263 48.3119 25.8292 47.8302C25.6321 47.3485 25.5332 46.8324 25.5381 46.312ZM31.2113 46.312C31.2026 45.9742 31.0945 45.6464 30.9004 45.3698C30.7064 45.0931 30.4351 44.8798 30.1204 44.7565C29.8058 44.6333 29.4618 44.6056 29.1315 44.6768C28.8011 44.748 28.4992 44.9151 28.2633 45.157C28.0274 45.399 27.8681 45.7052 27.8053 46.0373C27.7426 46.3693 27.7791 46.7125 27.9103 47.0238C28.0416 47.3352 28.2618 47.601 28.5433 47.7879C28.8248 47.9748 29.1552 48.0746 29.4931 48.0747C29.7243 48.0812 29.9543 48.0397 30.1687 47.9528C30.383 47.8659 30.5771 47.7355 30.7386 47.5699C30.9 47.4042 31.0254 47.207 31.1067 46.9905C31.1881 46.774 31.2237 46.543 31.2113 46.312Z" fill="#105246"/>
<path d="M42.3801 42.5793V49.6745C42.3801 52.1853 40.4174 53.2444 38.4325 53.2444C37.7346 53.2963 37.0357 53.1551 36.4126 52.8364C35.7895 52.5176 35.2661 52.0336 34.8997 51.4372L36.8106 50.3337C36.9622 50.6393 37.2021 50.8924 37.4992 51.0601C37.7963 51.2278 38.1369 51.3024 38.477 51.2743C38.7007 51.3116 38.93 51.297 39.1473 51.2316C39.3645 51.1663 39.5638 51.0519 39.7299 50.8973C39.8958 50.7427 40.0241 50.5521 40.1048 50.3401C40.1855 50.1281 40.2165 49.9004 40.1952 49.6745V48.9857C39.934 49.3071 39.6007 49.5624 39.2224 49.731C38.8441 49.8995 38.4314 49.9766 38.0178 49.956C37.0121 49.956 36.0476 49.5565 35.3364 48.8453C34.6252 48.1342 34.2257 47.1696 34.2257 46.1639C34.2257 45.1582 34.6252 44.1937 35.3364 43.4826C36.0476 42.7714 37.0121 42.3719 38.0178 42.3719C38.4312 42.353 38.8433 42.4309 39.2213 42.5993C39.5994 42.7678 39.9328 43.0221 40.1952 43.3421V42.6015L42.3801 42.5793ZM40.1952 46.1639C40.21 45.8038 40.1167 45.4474 39.9274 45.1405C39.7379 44.8338 39.4612 44.5907 39.1325 44.4425C38.8039 44.2943 38.4384 44.2478 38.0831 44.3089C37.7278 44.37 37.399 44.5361 37.1388 44.7856C36.8786 45.0351 36.699 45.3568 36.623 45.7092C36.547 46.0616 36.5783 46.4287 36.7126 46.7632C36.847 47.0978 37.0783 47.3845 37.3768 47.5865C37.6754 47.7886 38.0276 47.8967 38.3881 47.897C38.6234 47.9136 38.8596 47.8809 39.0814 47.8006C39.3033 47.7204 39.5059 47.5947 39.6761 47.4314C39.8463 47.2681 39.9805 47.0709 40.0699 46.8526C40.1594 46.6343 40.202 46.3998 40.1952 46.1639Z" fill="#105246"/>
<path d="M43.6614 46.312C43.6599 45.5295 43.8907 44.7641 44.3243 44.1127C44.7581 43.4613 45.3752 42.9533 46.0978 42.6528C46.8203 42.3523 47.6157 42.2729 48.3834 42.4247C49.1511 42.5765 49.8565 42.9525 50.4104 43.5054C50.9642 44.0582 51.3416 44.7629 51.4948 45.5303C51.648 46.2976 51.5701 47.0933 51.271 47.8164C50.9719 48.5395 50.465 49.1576 49.8145 49.5925C49.1639 50.0275 48.3989 50.2595 47.6164 50.2595C47.096 50.2655 46.5796 50.1675 46.0976 49.9713C45.6156 49.7751 45.1775 49.4847 44.8092 49.117C44.4409 48.7494 44.1496 48.3119 43.9525 47.8302C43.7554 47.3485 43.6564 46.8324 43.6614 46.312ZM49.3347 46.312C49.3259 45.9742 49.2178 45.6464 49.0237 45.3698C48.8297 45.0931 48.5584 44.8798 48.2437 44.7565C47.9291 44.6333 47.5851 44.6056 47.2548 44.6768C46.9244 44.748 46.6225 44.9151 46.3865 45.157C46.1507 45.399 45.9914 45.7052 45.9286 46.0373C45.8658 46.3693 45.9024 46.7125 46.0336 47.0238C46.1649 47.3352 46.385 47.601 46.6665 47.7879C46.9481 47.9748 47.2785 48.0746 47.6164 48.0747C47.8464 48.0791 48.0748 48.0361 48.2874 47.9482C48.4999 47.8604 48.6922 47.7297 48.852 47.5643C49.0119 47.399 49.1359 47.2024 49.2164 46.9869C49.2969 46.7714 49.3321 46.5416 49.3199 46.312H49.3347Z" fill="#105246"/>
<path d="M52.6008 40.5794C52.6008 40.3128 52.6799 40.0522 52.828 39.8305C52.9761 39.6089 53.1866 39.4361 53.4329 39.3341C53.6793 39.232 53.9502 39.2053 54.2117 39.2573C54.4732 39.3093 54.7134 39.4377 54.9019 39.6262C55.0905 39.8148 55.2188 40.0549 55.2708 40.3164C55.3229 40.5779 55.2961 40.849 55.1942 41.0952C55.0921 41.3415 54.9193 41.5521 54.6977 41.7002C54.476 41.8482 54.2154 41.9273 53.9487 41.9273C53.5919 41.9254 53.2502 41.7828 52.9978 41.5304C52.7454 41.278 52.6028 40.9363 52.6008 40.5794ZM52.8304 42.5791H55.0523V50.0446H52.8304V42.5791Z" fill="#105246"/>
<path d="M64.7397 46.3121C64.7666 46.8055 64.6957 47.2995 64.531 47.7655C64.3662 48.2314 64.111 48.6602 63.7799 49.0271C63.4487 49.394 63.0483 49.6918 62.6017 49.9034C62.155 50.1149 61.6709 50.236 61.1773 50.2597C60.7629 50.2795 60.349 50.2083 59.9652 50.0509C59.5813 49.8935 59.2366 49.6538 58.9554 49.3487V53.0518H56.7335V42.5793H58.9554V43.2829C59.2366 42.9778 59.5813 42.7381 59.9652 42.5807C60.349 42.4233 60.7629 42.3521 61.1773 42.3719C61.6703 42.3956 62.1538 42.5165 62.5999 42.7275C63.0461 42.9386 63.4461 43.2357 63.7771 43.6019C64.1082 43.968 64.3636 44.3958 64.5287 44.8609C64.694 45.326 64.7657 45.8192 64.7397 46.3121ZM62.5178 46.3121C62.509 45.9645 62.3985 45.627 62.1998 45.3416C62.0011 45.0563 61.7232 44.8354 61.4003 44.7064C61.0774 44.5774 60.7236 44.5459 60.3831 44.616C60.0425 44.6859 59.7298 44.8543 59.4839 45.1002C59.2381 45.3461 59.0698 45.6586 58.9997 45.9993C58.9298 46.3399 58.9612 46.6936 59.0901 47.0165C59.2192 47.3394 59.44 47.6174 59.7254 47.816C60.0109 48.0146 60.3483 48.1252 60.6959 48.134C60.9385 48.1495 61.1815 48.1128 61.4088 48.0265C61.636 47.9401 61.8421 47.8062 62.0134 47.6336C62.1845 47.461 62.3168 47.2538 62.4013 47.0259C62.4857 46.7979 62.5204 46.5546 62.503 46.3121H62.5178Z" fill="#105246"/>
<path d="M71.6573 47.8083C71.6573 49.5266 70.176 50.2598 68.5466 50.2598C67.8957 50.3174 67.2425 50.1789 66.6709 49.8621C66.0995 49.5453 65.6358 49.0648 65.3397 48.4823L67.2802 47.3787C67.3589 47.6481 67.5276 47.8825 67.7579 48.0428C67.9883 48.2031 68.2666 48.2798 68.5466 48.2601C69.0873 48.2601 69.3539 48.0897 69.3539 47.7935C69.3539 46.9714 65.6508 47.4084 65.6508 44.831C65.6508 43.2016 67.0283 42.3794 68.6133 42.3794C69.1982 42.3617 69.7771 42.5006 70.2902 42.7819C70.8033 43.0632 71.2318 43.4766 71.5314 43.9792L69.5836 45.0013C69.4975 44.8057 69.3565 44.6393 69.1777 44.5223C68.9989 44.4052 68.79 44.3427 68.5763 44.3421C68.1912 44.3421 67.9542 44.4903 67.9542 44.7643C67.9838 45.616 71.6573 45.0457 71.6573 47.8083Z" fill="#105246"/>
<path d="M79.8338 42.5791V50.0447H77.6118V49.3485C77.3534 49.6578 77.0254 49.9016 76.6546 50.06C76.284 50.2183 75.881 50.2866 75.4788 50.2595C73.9975 50.2595 72.6866 49.1855 72.6866 47.1637V42.5791H74.9085V46.8378C74.889 47.0193 74.9102 47.2028 74.9704 47.3751C75.0306 47.5474 75.1284 47.7041 75.2568 47.8339C75.3852 47.9637 75.5408 48.0633 75.7125 48.1254C75.8841 48.1876 76.0674 48.2106 76.2491 48.1931C77.0638 48.1931 77.6341 47.7191 77.6341 46.66V42.5791H79.8338Z" fill="#105246"/>
<path d="M92.6763 45.4678V50.0449H90.4543V45.6604C90.4543 44.9198 90.0914 44.4309 89.3805 44.4309C88.6695 44.4309 88.2103 44.9568 88.2103 45.8382V50.0449H85.9884V45.6604C85.9884 44.9198 85.6328 44.4309 84.9144 44.4309C84.1961 44.4309 83.7517 44.9568 83.7517 45.8382V50.0449H81.5298V42.5794H83.7517V43.2682C83.9839 42.964 84.2885 42.7226 84.6377 42.5662C84.987 42.4096 85.3698 42.3429 85.7514 42.372C86.1346 42.3534 86.5161 42.4344 86.8587 42.6069C87.2014 42.7796 87.4935 43.038 87.7066 43.3571C87.9545 43.0235 88.2829 42.7582 88.6611 42.5859C89.0393 42.4137 89.455 42.34 89.8692 42.372C91.5579 42.372 92.6763 43.6015 92.6763 45.4678Z" fill="#105246"/>
<path d="M94.5724 42.5348C95.4886 42.5348 96.2314 41.792 96.2314 40.8758C96.2314 39.9595 95.4886 39.2168 94.5724 39.2168C93.6562 39.2168 92.9133 39.9595 92.9133 40.8758C92.9133 41.792 93.6562 42.5348 94.5724 42.5348Z" fill="#105246"/>
<path d="M47.172 33.4994C51.4628 33.4994 54.9411 30.021 54.9411 25.7301C54.9411 21.4393 51.4628 17.9609 47.172 17.9609C42.8811 17.9609 39.4027 21.4393 39.4027 25.7301C39.4027 30.021 42.8811 33.4994 47.172 33.4994Z" fill="#105246"/>
<path d="M64.5398 33.4994C68.8306 33.4994 72.3089 30.021 72.3089 25.7301C72.3089 21.4393 68.8306 17.9609 64.5398 17.9609C60.2489 17.9609 56.7705 21.4393 56.7705 25.7301C56.7705 30.021 60.2489 33.4994 64.5398 33.4994Z" fill="#105246"/>
<path d="M37.5734 17.9609H22.0424V33.4919H37.5734V17.9609Z" fill="#105246"/>
</svg>
