<svg width="86" height="60" viewBox="0 0 86 60" fill="none" xmlns="http://www.w3.org/2000/svg">
<g clip-path="url(#paint0_angular_4029_1917_clip_path)" data-figma-skip-parse="true"><g transform="matrix(0 0.03 -0.03 0 30 30)"><foreignObject x="-1023.33" y="-1023.33" width="2046.66" height="2046.66"><div xmlns="http://www.w3.org/1999/xhtml" style="background:conic-gradient(from 90deg,rgba(16, 82, 70, 0.4) 0deg,rgba(16, 82, 70, 0) 360deg);height:100%;width:100%;opacity:1"></div></foreignObject></g></g><path d="M60 30C60 46.5685 46.5685 60 30 60C13.4315 60 0 46.5685 0 30C0 13.4315 13.4315 0 30 0C46.5685 0 60 13.4315 60 30ZM9 30C9 41.598 18.402 51 30 51C41.598 51 51 41.598 51 30C51 18.402 41.598 9 30 9C18.402 9 9 18.402 9 30Z" data-figma-gradient-fill="{&#34;type&#34;:&#34;GRADIENT_ANGULAR&#34;,&#34;stops&#34;:[{&#34;color&#34;:{&#34;r&#34;:0.062745101749897003,&#34;g&#34;:0.32156863808631897,&#34;b&#34;:0.27450981736183167,&#34;a&#34;:0.40000000596046448},&#34;position&#34;:0.0},{&#34;color&#34;:{&#34;r&#34;:0.062745101749897003,&#34;g&#34;:0.32156863808631897,&#34;b&#34;:0.27450981736183167,&#34;a&#34;:0.0},&#34;position&#34;:1.0}],&#34;stopsVar&#34;:[{&#34;color&#34;:{&#34;r&#34;:0.062745101749897003,&#34;g&#34;:0.32156863808631897,&#34;b&#34;:0.27450981736183167,&#34;a&#34;:0.40000000596046448},&#34;position&#34;:0.0},{&#34;color&#34;:{&#34;r&#34;:0.062745101749897003,&#34;g&#34;:0.32156863808631897,&#34;b&#34;:0.27450981736183167,&#34;a&#34;:0.0},&#34;position&#34;:1.0}],&#34;transform&#34;:{&#34;m00&#34;:-9.6589403142388619e-14,&#34;m01&#34;:-60.0,&#34;m02&#34;:60.000007629394531,&#34;m10&#34;:60.0,&#34;m11&#34;:1.2989609388114332e-13,&#34;m12&#34;:1.3652923769313929e-07},&#34;opacity&#34;:1.0,&#34;blendMode&#34;:&#34;NORMAL&#34;,&#34;visible&#34;:true}"/>
<circle cx="29.6707" cy="55.5" r="4.5" fill="#105246"/>
<circle cx="29.6707" cy="4.5" r="4.5" fill="#105246"/>
<circle cx="29.6707" cy="30" r="4.5" fill="#105246"/>
<circle cx="80.5" cy="55.5" r="4.5" fill="#105246"/>
<rect x="25.1707" y="51" width="60" height="9" rx="4.5" fill="url(#paint1_linear_4029_1917)"/>
<defs>
<clipPath id="paint0_angular_4029_1917_clip_path"><path d="M60 30C60 46.5685 46.5685 60 30 60C13.4315 60 0 46.5685 0 30C0 13.4315 13.4315 0 30 0C46.5685 0 60 13.4315 60 30ZM9 30C9 41.598 18.402 51 30 51C41.598 51 51 41.598 51 30C51 18.402 41.598 9 30 9C18.402 9 9 18.402 9 30Z"/></clipPath><linearGradient id="paint1_linear_4029_1917" x1="25.1707" y1="55.5" x2="85.1707" y2="55.5" gradientUnits="userSpaceOnUse">
<stop stop-color="#105246" stop-opacity="0"/>
<stop offset="1" stop-color="#105246" stop-opacity="0.4"/>
</linearGradient>
</defs>
</svg>
