<svg width="60" height="60" viewBox="0 0 60 60" fill="none" xmlns="http://www.w3.org/2000/svg">
<rect width="60" height="9" rx="4.5" fill="url(#paint0_linear_4029_1932)"/>
<path d="M0 30C0 27.5147 2.01472 25.5 4.5 25.5H55.5C57.9853 25.5 60 27.5147 60 30V30C60 32.4853 57.9853 34.5 55.5 34.5H4.5C2.01472 34.5 0 32.4853 0 30V30Z" fill="url(#paint1_linear_4029_1932)"/>
<rect width="60" height="9" rx="4.5" transform="matrix(-1 0 0 1 60 51)" fill="url(#paint2_linear_4029_1932)"/>
<circle cx="4.5" cy="55.5" r="4.5" fill="#105246"/>
<circle cx="55.5" cy="4.5" r="4.5" fill="#105246"/>
<circle cx="55.5" cy="55.5" r="4.5" fill="#105246"/>
<circle cx="30" cy="30" r="4.5" fill="#105246"/>
<circle cx="4.5" cy="4.5" r="4.5" fill="#105246"/>
<defs>
<linearGradient id="paint0_linear_4029_1932" x1="60" y1="4.5" x2="0" y2="4.5" gradientUnits="userSpaceOnUse">
<stop stop-color="#105246" stop-opacity="0"/>
<stop offset="0.6" stop-color="#105246" stop-opacity="0.2"/>
</linearGradient>
<linearGradient id="paint1_linear_4029_1932" x1="60" y1="30" x2="0" y2="30" gradientUnits="userSpaceOnUse">
<stop stop-color="#105246" stop-opacity="0.4"/>
<stop offset="0.601808" stop-color="#105246" stop-opacity="0"/>
</linearGradient>
<linearGradient id="paint2_linear_4029_1932" x1="60" y1="4.5" x2="0" y2="4.5" gradientUnits="userSpaceOnUse">
<stop stop-color="#105246" stop-opacity="0.4"/>
<stop offset="0.6" stop-color="#105246" stop-opacity="0"/>
</linearGradient>
</defs>
</svg>
