<svg width="60" height="60" viewBox="0 0 60 60" fill="none" xmlns="http://www.w3.org/2000/svg">
<path d="M29.5 60C31.9853 60 34 57.9853 34 55.5V4.5C34 2.01472 31.9853 0 29.5 0V0C27.0147 0 25 2.01472 25 4.5V55.5C25 57.9853 27.0147 60 29.5 60V60Z" fill="url(#paint0_linear_4029_1979)"/>
<rect width="60" height="9" rx="4.5" transform="matrix(-1 0 0 1 60 51)" fill="url(#paint1_linear_4029_1979)"/>
<path d="M55.5 0C57.9853 0 60 2.01472 60 4.5V55.5C60 57.9853 57.9853 60 55.5 60V60C53.0147 60 51 57.9853 51 55.5V4.5C51 2.01472 53.0147 0 55.5 0V0Z" fill="url(#paint2_linear_4029_1979)"/>
<path d="M4.5 0C6.98528 0 9 2.01472 9 4.5V55.5C9 57.9853 6.98528 60 4.5 60V60C2.01472 60 0 57.9853 0 55.5V4.5C0 2.01472 2.01472 0 4.5 0V0Z" fill="url(#paint3_linear_4029_1979)"/>
<circle cx="4.5" cy="55.5" r="4.5" fill="#105246"/>
<circle cx="29.5" cy="55.5" r="4.5" fill="#105246"/>
<circle cx="55.5" cy="55.5" r="4.5" fill="#105246"/>
<circle cx="29.5" cy="4.5" r="4.5" fill="#105246"/>
<defs>
<linearGradient id="paint0_linear_4029_1979" x1="29.5" y1="0" x2="29.5" y2="60" gradientUnits="userSpaceOnUse">
<stop stop-color="#105246" stop-opacity="0.4"/>
<stop offset="0.601808" stop-color="#105246" stop-opacity="0"/>
</linearGradient>
<linearGradient id="paint1_linear_4029_1979" x1="60" y1="4.5" x2="0" y2="4.5" gradientUnits="userSpaceOnUse">
<stop stop-color="#105246" stop-opacity="0.4"/>
<stop offset="0.5" stop-color="#105246" stop-opacity="0.2"/>
<stop offset="1" stop-color="#105246" stop-opacity="0"/>
</linearGradient>
<linearGradient id="paint2_linear_4029_1979" x1="55.5" y1="60" x2="55.5" y2="-21.9778" gradientUnits="userSpaceOnUse">
<stop stop-color="#105246" stop-opacity="0.4"/>
<stop offset="0.601808" stop-color="#105246" stop-opacity="0"/>
</linearGradient>
<linearGradient id="paint3_linear_4029_1979" x1="4.5" y1="60" x2="4.5" y2="0" gradientUnits="userSpaceOnUse">
<stop stop-color="#105246" stop-opacity="0.4"/>
<stop offset="0.601808" stop-color="#105246" stop-opacity="0"/>
</linearGradient>
</defs>
</svg>
